<?xml version="1.0" encoding="UTF-8"?>
<svg width="774" height="327" viewBox="0 0 774 327" fill="none" xmlns="http://www.w3.org/2000/svg">
<g clip-path="url(#clip0_80_455)">
<path d="M774 25.2227V300.482C773.996 304.697 772.932 308.843 770.906 312.543C769.547 315.026 767.776 317.262 765.668 319.158C765.512 319.302 765.355 319.435 765.199 319.558C763.287 321.223 761.129 322.584 758.799 323.593C757.767 324.049 756.703 324.431 755.616 324.738C754.901 324.938 754.164 325.116 753.427 325.249C752.428 325.446 751.417 325.576 750.4 325.638C749.831 325.683 749.25 325.705 748.658 325.705H493.048L480.26 326.394L468.175 325.705H25.3421C24.8283 325.705 24.3034 325.694 23.8008 325.649C22.4169 325.571 21.042 325.378 19.6907 325.071C14.0955 323.798 9.10042 320.673 5.5232 316.205C1.94598 311.738 -0.00138182 306.195 7.35663e-07 300.482V25.2227C0.00809349 18.5357 2.68067 12.1249 7.43148 7.39646C12.1823 2.66803 18.6234 0.00806607 25.3421 1.14441e-05H748.658C755.377 0.00806607 761.818 2.66803 766.569 7.39646C771.319 12.1249 773.992 18.5357 774 25.2227Z" fill="#F2F2F2"/>
<path d="M180.756 1.52588e-05C141.121 92.0135 148.722 203.756 180.756 325.705H403.117C430.924 203.617 445 88.2055 403.117 1.52588e-05H180.756Z" fill="#E4E4E4"/>
<path d="M91.0706 1.52588e-05C18.6474 88.7074 38.8527 202.817 91.0706 325.705H180.756C148.413 209.61 143.125 99.8114 180.756 1.52588e-05H91.0706Z" fill="#CACACA"/>
<path d="M362.009 7.55036H328.375V41.0256H362.009V7.55036Z" fill="white"/>
<path d="M307.821 7.55036H274.188V41.0256H307.821V7.55036Z" fill="white"/>
<path d="M253.634 7.55036H220V41.0256H253.634V7.55036Z" fill="white"/>
<path d="M361.075 83.7994H327.441V117.275H361.075V83.7994Z" fill="white"/>
<path d="M306.887 83.7994H273.253V117.275H306.887V83.7994Z" fill="white"/>
<path d="M252.7 83.7994H219.066V117.275H252.7V83.7994Z" fill="white"/>
<path d="M360.14 160.049H326.507V193.524H360.14V160.049Z" fill="white"/>
<path d="M305.953 160.049H272.319V193.524H305.953V160.049Z" fill="white"/>
<path d="M251.765 160.049H218.132V193.524H251.765V160.049Z" fill="white"/>
<path d="M359.206 236.298H325.572V269.773H359.206V236.298Z" fill="white"/>
<path d="M305.019 236.298H271.385V269.773H305.019V236.298Z" fill="white"/>
<path d="M250.831 236.298H217.197V269.773H250.831V236.298Z" fill="white"/>
<path d="M358.274 312.543H324.633V325.705H358.274V312.543Z" fill="white"/>
<path d="M304.083 312.543H270.453V325.705H304.083V312.543Z" fill="white"/>
<path d="M249.891 312.543H216.262V325.705H249.891V312.543Z" fill="white"/>
<path d="M7.35663e-07 173.002V300.482C-0.00138182 306.195 1.94598 311.738 5.5232 316.205C9.10042 320.673 14.0955 323.799 19.6907 325.071C21.042 325.378 22.4169 325.571 23.8008 325.649C24.3034 325.694 24.8283 325.705 25.3421 325.705H122.835C143.303 266.045 180.935 10.0046 26.8052 32.237L7.35663e-07 173.002Z" fill="#E4E4E4"/>
<path d="M78.9256 236.298H45.292V269.773H78.9256V236.298Z" fill="white"/>
<path d="M24.739 236.297H0V269.768H24.739V236.297Z" fill="white"/>
<path d="M77.992 312.543H44.3625V325.705H77.992V312.543Z" fill="white"/>
<path d="M3.08261 312.543C4.80752 315.679 7.17883 318.415 10.041 320.574C12.9032 322.733 16.1917 324.266 19.6907 325.071C21.0421 325.378 22.4169 325.571 23.8008 325.649V312.543H3.08261Z" fill="white"/>
<path d="M774 208.762V300.482C773.996 304.697 772.932 308.843 770.906 312.543L769.164 311.087L765.802 308.286L747.195 292.801L751.819 311.765L746.38 312.054L745.955 312.076L736.082 312.61L727.448 313.077H727.415L715.096 313.744L703.067 314.389L699.057 314.6L673.514 315.978L662.624 316.567L657.688 316.834L644.631 317.535L627.119 318.479L623.869 318.657L572.47 321.425L539.778 323.193L534.708 323.459L534.328 323.482L532.262 323.593H532.251L527.772 323.837L521.339 324.182L510.918 324.738L506.317 324.982L493.048 325.705L480.26 326.394L468.175 325.705L429.207 323.482L403.943 322.037L403.117 321.992L358.274 319.435L324.633 317.512L304.083 316.345L270.453 314.422L254.951 313.544L249.891 313.255L237.449 312.543L180.756 309.309L176.535 309.064L176.3 309.053L155.761 307.886L142.939 307.152L169.878 282.241L170.247 281.896L180.756 272.18C188.318 258.674 195.577 245.035 217.2 238.476L219.557 236.297L252.025 206.272L257.564 206.195L403.117 204.283L425.097 203.994L470.13 203.404L486.447 203.193L498.498 203.894L602.905 209.985L609.707 210.385L644.419 212.409L676.541 214.276L691.809 215.165L695.539 215.388L695.785 215.399L697.661 215.51L702.687 215.065L708.864 214.521L711.153 214.321L712.203 214.221L734.194 212.286L736.037 212.12L741.298 211.653L771.766 253.45L774 208.762Z" fill="#3F3D56"/>
<path d="M656.107 307.904C640.634 285.611 629.356 229.006 633.77 205.635C633.577 204.873 642.808 217.693 642.838 216.898C642.984 212.972 645.795 209.93 649.115 210.103L690.841 212.28C691.873 212.369 692.865 212.725 693.715 213.315C694.566 213.904 695.247 214.705 695.689 215.638L727.236 275.768C727.735 276.73 728.033 277.781 728.114 278.86C728.422 282.772 725.989 286.239 722.68 286.603L666.736 292.752C666.551 292.772 666.366 292.783 666.181 292.783C663.523 292.776 656.876 310.912 656.107 307.904Z" fill="white"/>
<path d="M478.489 307.697L478.899 309.909L480.487 318.424C480.808 320.155 481.304 321.85 481.969 323.482C482.167 323.993 482.392 324.493 482.63 324.982C482.749 325.227 482.868 325.46 483.001 325.705H597.555L616.568 323.515L616.807 323.482C620.726 322.945 624.367 321.168 627.193 318.413C629.537 316.089 631.397 313.328 632.667 310.287C633.936 307.247 634.589 303.986 634.589 300.694C634.615 299.774 634.589 298.853 634.51 297.937C634.407 296.637 634.203 295.348 633.901 294.079C636.041 269.902 630.403 246.332 617.428 223.336C616.365 218.42 613.761 213.968 609.993 210.619C606.896 207.891 602.956 206.299 598.826 206.106L506.354 202.326C502.832 202.214 499.357 203.155 496.377 205.027C490.714 208.518 486.6 215.099 485.792 223.013C478.008 247.892 475.41 274.091 478.158 300.004C477.904 302.571 478.015 305.161 478.489 307.697Z" fill="white"/>
<path d="M444.634 319.032L207.036 312.15C204.049 312.063 159.873 329.413 157.729 326.715C153.032 320.806 152.918 311.077 157.473 304.985L261.267 202.537C262.218 201.15 263.483 200.006 264.96 199.195C266.437 198.384 268.085 197.93 269.771 197.869H461.027C461.932 197.869 462.831 198.003 463.697 198.264C470.071 200.177 474.043 208.431 472.569 216.699L456.44 307.131C455.181 314.087 450.405 319.012 444.897 319.035C444.81 319.035 444.722 319.034 444.634 319.032Z" fill="white"/>
<path d="M693.02 219.365L491.091 205.505L252.025 206.275C281.432 175.325 410.686 137.59 549.116 183.174C687.604 187.794 697.662 215.515 697.662 215.515L699.389 218.21L693.02 219.365Z" fill="#D7987D"/>
<path d="M773.017 307.419C772.509 309.2 771.801 310.919 770.906 312.543C769.546 315.026 767.776 317.262 765.668 319.157C765.512 319.302 765.355 319.435 765.199 319.558C763.287 321.223 761.129 322.584 758.799 323.593C757.767 324.049 756.703 324.431 755.616 324.738C754.901 324.938 754.164 325.116 753.427 325.249C752.428 325.446 751.417 325.576 750.4 325.638C749.831 325.683 749.25 325.705 748.658 325.705H493.048L480.26 326.394L468.175 325.705H25.3421C24.8283 325.705 24.3034 325.694 23.8008 325.649C22.4169 325.571 21.042 325.378 19.6906 325.071L23.8008 324.471L30.6138 323.482L44.3626 321.481L77.992 316.59L91.0707 314.689L122.835 310.076L128.14 309.309L142.939 307.152L155.995 307.408L175.976 307.808H176.222L180.756 307.897L211.124 308.497L222.282 308.719L304.127 310.331L311.61 310.476L322.768 310.698L358.296 311.409L403.117 312.288L406.11 312.343L454.102 313.299L454.728 313.31L479.21 311.587L503.167 309.909L521.316 308.642L527.169 308.23L527.392 308.219L528.688 308.13L529.537 308.064L536.662 307.563L563.322 305.696L575.195 304.862L580.31 304.506L585.66 304.128L634.591 300.694L648.217 299.738H648.228L655.677 299.215L669.337 298.259H669.348L683.387 297.27H683.398L688.849 296.892L690.937 296.747L706.842 295.636L716.458 294.958L732.966 293.801L738.07 293.446L744.927 292.957L746.804 292.823L747.195 292.801C747.195 292.801 752.936 292.923 760.419 297.058C762.788 298.372 765.028 299.906 767.109 301.638C768.55 302.831 769.923 304.104 771.219 305.451C771.822 306.074 772.414 306.73 773.017 307.419Z" fill="#D7987D"/>
<path d="M519.809 325.705H537.131L535.545 324.238L534.73 323.482L534.708 323.46L531.056 320.091L528.152 317.401L525.795 319.747L524.846 320.692L522.042 323.482L521.339 324.182L519.809 325.705Z" fill="#CACACA"/>
<path d="M614.71 325.705H641.348L645.447 323.482L657.688 316.834L660.569 315.267L683.387 297.27H683.398L689.128 292.757L692.099 290.411L695.773 287.51L713.923 273.203C714.425 272.806 714.892 272.368 715.319 271.891C716.307 270.777 717.057 269.474 717.521 268.061C717.986 266.649 718.156 265.157 718.022 263.676C718.014 263.549 717.995 263.423 717.966 263.299C717.767 261.67 717.201 260.106 716.309 258.726C715.418 257.346 714.224 256.184 712.817 255.328C710.834 254.118 708.516 253.566 706.198 253.752C703.879 253.937 701.68 254.851 699.917 256.362L686.604 267.534L681.287 271.991L660.703 289.266L648.228 299.737H648.217L645.838 301.738L623.868 318.657L617.592 323.482L614.71 325.705Z" fill="#FFB6B6"/>
<path d="M706.936 286.656C707.639 286.752 708.354 286.616 708.971 286.268C709.589 285.92 710.075 285.381 710.354 284.732C710.714 283.937 711.314 283.275 712.071 282.836C712.218 282.753 712.371 282.68 712.528 282.617C713.483 282.259 714.337 281.677 715.017 280.92C715.698 280.164 716.185 279.255 716.437 278.27C717.22 275.02 719.73 271.866 722.252 269.434C725.013 266.773 727.959 264.22 729.999 260.979C732.942 256.303 733.767 249.74 728.09 245.839C725.649 244.217 722.722 243.482 719.8 243.757C713.684 244.253 708.626 247.967 703.821 251.567L705.024 249.217C699.845 253.24 693.904 256.18 687.555 257.861C688.654 258.855 687.701 260.843 686.292 261.305C684.882 261.767 683.362 261.28 681.91 260.973C680.079 260.587 677.816 260.62 677.094 262.795C676.936 263.32 676.889 263.872 676.956 264.416C677.022 264.96 677.201 265.485 677.481 265.957C682.581 274.989 689.503 282.873 697.811 289.115C699.657 290.5 701.8 291.863 704.096 291.592C706.392 291.321 708.345 288.481 706.936 286.656Z" fill="#D7987D"/>
<path d="M701.872 305.051L703.067 314.389L704.228 323.482L704.351 324.449L704.519 325.705H748.658C749.25 325.705 749.831 325.683 750.4 325.638C751.417 325.576 752.428 325.446 753.427 325.249L753.93 322.881L754.22 321.47L735.758 315.678L727.448 313.077H727.426L715.42 309.297L701.872 305.051Z" fill="#FFB6B6"/>
<path d="M684.728 283.108C685.632 285.097 686.85 287.754 688.212 290.767C688.514 291.411 688.815 292.079 689.128 292.757C689.709 294.046 690.312 295.38 690.938 296.747C693.696 302.828 696.701 309.431 699.057 314.6C701.012 318.924 702.531 322.259 703.078 323.482C703.246 323.826 703.324 324.004 703.324 324.004L704.351 324.449L707.289 325.705H748.658C749.25 325.705 749.831 325.683 750.4 325.638C751.417 325.576 752.428 325.447 753.427 325.249C754.164 325.116 754.901 324.938 755.616 324.738C756.703 324.431 757.767 324.049 758.799 323.593C761.129 322.584 763.287 321.223 765.199 319.558C765.288 318.791 765.467 317.557 765.657 316.056C765.955 313.815 766.116 311.558 766.137 309.297C766.137 307.486 761.67 304.551 760.419 297.059C759.998 294.322 759.994 291.537 760.408 288.799C762.72 271.925 761.904 246.102 745.564 241.055L733.815 220.579H711.399L707.758 231.262V231.273L705.669 237.398L704.418 241.055L704.15 241.411L696.153 251.849C696.153 251.849 694.88 253.461 693.138 256.006V256.017C690.623 259.657 688.437 263.511 686.604 267.534C685.408 270.14 684.545 272.885 684.035 275.704C683.537 278.187 683.778 280.76 684.728 283.108Z" fill="#2F2E41"/>
<path d="M731.968 199.942C715.498 212.412 697.156 222.336 693.699 236.059C693.699 236.059 695.77 214.498 686.11 218.584C669.878 225.451 675.37 188.106 679.922 182C687.508 171.822 713.089 166.039 713.089 166.039L731.236 175.954L731.968 199.942Z" fill="#2F2E41"/>
<path d="M703.289 215.074C718.998 215.074 731.733 202.399 731.733 186.764C731.733 171.129 718.998 158.454 703.289 158.454C687.579 158.454 674.844 171.129 674.844 186.764C674.844 202.399 687.579 215.074 703.289 215.074Z" fill="#FFB6B6"/>
<path d="M713.533 175.932L714.627 180.717L695.493 185.052C695.476 184.085 695.259 183.131 694.854 182.251C694.449 181.371 693.865 180.584 693.14 179.939C693.553 181.815 693.506 183.762 693.003 185.617C682.684 191.38 683.277 193.421 674.937 191.952C674.377 192.079 673.798 192.094 673.233 191.998C672.667 191.902 672.126 191.697 671.64 191.392C671.155 191.088 670.734 190.692 670.402 190.226C670.07 189.76 669.834 189.234 669.707 188.677C666.351 174.007 665.249 159.013 679.916 155.371C683.481 154.484 687.189 154.314 690.821 154.871C694.453 155.429 697.936 156.703 701.067 158.618C704.198 160.533 706.914 163.051 709.054 166.024C711.195 168.997 712.717 172.365 713.533 175.932Z" fill="#2F2E41"/>
<path d="M708.853 195.022C707.916 190.936 706.079 187.107 703.476 183.812C700.872 180.518 697.566 177.839 693.796 175.97C690.027 174.101 685.887 173.088 681.677 173.005C677.466 172.921 673.289 173.768 669.447 175.486C670.778 171.577 673.471 168.271 677.039 166.168L698.577 156.862C709.2 154.454 726.017 147.622 733.691 154.165C740.76 160.175 737.319 171.94 743.829 178.529C750.964 185.75 751.57 194.288 749.547 199.199C747.206 204.88 742.523 212.631 736.679 214.309C736.375 212.31 735.373 210.481 733.849 209.144C734.27 211.049 734.307 213.019 733.957 214.939L698.577 243.023C701.881 240.163 704.696 232.792 706.635 224.491C707.783 219.577 714.631 217.853 709.077 209.513C703.523 201.173 709.607 198.319 708.853 195.022Z" fill="#2F2E41"/>
<path d="M737.19 163.697L737.091 163.895C736.969 164.158 736.848 164.422 736.749 164.696L736.738 164.707C736.197 164.905 735.591 164.587 734.995 164.082C735.088 165.269 735.154 166.417 735.204 167.543L716.369 160.207C719.644 160.77 720.129 149.17 722.478 151.393C722.611 151.514 722.732 151.635 722.853 151.755C722.561 151.056 722.36 150.322 722.258 149.571C722.157 148.629 722.232 147.676 722.478 146.761C722.482 146.757 722.486 146.751 722.488 146.746C722.489 146.74 722.49 146.734 722.489 146.728C722.724 145.9 723.089 145.115 723.57 144.401C724.264 143.363 725.142 142.459 726.162 141.734C727.462 140.745 728.979 140.074 730.588 139.777C732.198 139.479 733.855 139.563 735.425 140.022C739.023 141.376 741.997 143.997 743.785 147.387C745.414 149.996 746.245 153.02 746.178 156.091C746.111 156.897 745.936 157.69 745.66 158.451C745.316 159.519 744.729 160.493 743.944 161.299C743.16 162.104 742.2 162.718 741.138 163.094C740.873 163.182 740.565 163.28 740.234 163.401C740.057 161.973 740.046 160.529 740.201 159.098C738.974 160.475 737.96 162.025 737.19 163.697Z" fill="#2F2E41"/>
<path d="M718.949 159.461C718.974 160.073 719.047 160.682 719.17 161.283C719.179 161.36 719.194 161.437 719.214 161.513C719.986 164.927 724.166 157.825 727.397 160.207C729.411 161.651 731.645 162.763 734.014 163.5C734.113 163.225 734.995 163.763 735.117 163.5C735.15 163.434 735.084 162.468 735.117 162.402C733.101 161.63 731.235 160.516 729.603 159.109C726.57 156.881 727 158.967 726.294 155.816C725.478 152.183 720.67 153.742 723.14 152.019L722.853 151.624C721.099 152.829 719.805 154.589 719.181 156.618C719.182 156.624 719.181 156.63 719.179 156.635C719.177 156.641 719.174 156.646 719.17 156.651C718.985 157.575 718.911 158.519 718.949 159.461Z" fill="#D7987D"/>
<path d="M714.224 325.705H734.719L734.954 323.482L735.758 315.678L736.082 312.61L737.467 299.26L738.07 293.446L739.399 280.629L739.846 276.316C740.13 273.459 739.276 270.606 737.466 268.371C735.657 266.136 733.038 264.697 730.174 264.366C729.758 264.318 729.341 264.292 728.923 264.288H728.889C728.381 264.293 727.874 264.327 727.37 264.388C724.788 264.757 722.422 266.025 720.691 267.967C719.056 269.79 718.088 272.109 717.944 274.548L717.932 274.715V274.726L716.961 288.11L716.458 294.958L716.19 298.748L715.419 309.297L715.096 313.744L714.392 323.482L714.224 325.705Z" fill="#FFB6B6"/>
<path d="M744.638 290.691C745.197 290.257 745.598 289.653 745.779 288.97C745.96 288.287 745.911 287.564 745.639 286.912C745.319 286.101 745.261 285.21 745.474 284.365C745.517 284.202 745.571 284.042 745.635 283.886C746.044 282.956 746.221 281.941 746.152 280.928C746.083 279.915 745.769 278.933 745.237 278.067C743.444 275.24 742.928 271.249 742.939 267.754C742.951 263.929 743.172 260.047 742.264 256.331C740.953 250.969 736.808 245.8 730.038 247.123C727.168 247.73 724.595 249.304 722.754 251.578C718.841 256.283 717.983 262.48 717.219 268.417L716.368 265.919C715.647 272.418 713.615 278.705 710.393 284.403C711.874 284.314 712.64 286.38 711.988 287.708C711.337 289.035 709.925 289.779 708.691 290.599C707.135 291.634 705.579 293.269 706.64 295.302C706.908 295.782 707.272 296.201 707.71 296.533C708.148 296.865 708.65 297.104 709.185 297.234C719.243 299.904 729.747 300.475 740.037 298.911C742.322 298.562 744.799 297.986 746.206 296.161C747.614 294.335 746.934 290.961 744.638 290.691Z" fill="#D7987D"/>
<path d="M527.169 313.899C527.169 317.03 528.419 320.033 530.643 322.247C532.867 324.461 535.884 325.705 539.03 325.705H563.333C566.479 325.705 569.496 324.461 571.721 322.247C573.945 320.033 575.195 317.03 575.195 313.899V304.899C575.195 302.994 574.732 301.117 573.845 299.429C572.958 297.741 571.674 296.291 570.102 295.204C568.53 294.117 566.717 293.425 564.818 293.186C562.919 292.948 560.991 293.17 559.197 293.835L534.894 302.835C532.626 303.675 530.67 305.185 529.29 307.163C527.909 309.14 527.169 311.491 527.169 313.899Z" fill="#CACACA"/>
<path d="M25.3421 323.482C24.8283 323.482 24.3145 323.459 23.8008 323.426V324.471L30.6138 323.482H25.3421ZM122.835 323.482V325.705H180.756V323.482H122.835ZM429.207 323.482L468.175 325.705H493.048L506.317 324.982L510.918 324.738L521.339 324.182L527.772 323.837L532.251 323.593H532.262L534.328 323.482H429.207ZM748.658 323.482H746.558L746.681 325.705H748.658C749.25 325.705 749.831 325.683 750.4 325.638L750.501 324.249L750.568 323.393C749.933 323.456 749.296 323.486 748.658 323.482ZM25.3421 323.482C24.8283 323.482 24.3145 323.459 23.8008 323.426V324.471L30.6138 323.482H25.3421ZM122.835 323.482V325.705H180.756V323.482H122.835ZM429.207 323.482L468.175 325.705H493.048L506.317 324.982L510.918 324.738L521.339 324.182L527.772 323.837L532.251 323.593H532.262L534.328 323.482H429.207ZM25.3421 323.482C24.8283 323.482 24.3145 323.459 23.8008 323.426V324.471L30.6138 323.482H25.3421ZM44.3626 323.482V325.705H249.891V323.482H44.3626ZM429.207 323.482L468.175 325.705H493.048L506.317 324.982L510.918 324.738L521.339 324.182L527.772 323.837L532.251 323.593H532.262L534.328 323.482H429.207ZM748.658 323.482H661.139C661.016 324.215 660.904 324.96 660.804 325.705H748.658C749.25 325.705 749.831 325.683 750.4 325.638L750.501 324.249L750.568 323.393C749.933 323.456 749.296 323.486 748.658 323.482ZM25.3421 323.482C24.8283 323.482 24.3145 323.459 23.8008 323.426V324.471L30.6138 323.482H25.3421ZM25.3421 323.482C24.8283 323.482 24.3145 323.459 23.8008 323.426V324.471L30.6138 323.482H25.3421ZM25.3421 323.482C24.8283 323.482 24.3145 323.459 23.8008 323.426V324.471L30.6138 323.482H25.3421ZM25.3421 323.482C24.8283 323.482 24.3145 323.459 23.8008 323.426V324.471L30.6138 323.482H25.3421ZM25.3421 323.482C24.8283 323.482 24.3145 323.459 23.8008 323.426V324.471L30.6138 323.482H25.3421ZM25.3421 323.482C24.8283 323.482 24.3145 323.459 23.8008 323.426V324.471L30.6138 323.482H25.3421ZM25.3421 323.482C24.8283 323.482 24.3145 323.459 23.8008 323.426V324.471L30.6138 323.482H25.3421ZM25.3421 323.482C24.8283 323.482 24.3145 323.459 23.8008 323.426C20.1254 323.186 16.5615 322.072 13.4076 320.179C10.2537 318.285 7.60165 315.667 5.67377 312.543H3.08261C4.80752 315.679 7.17883 318.415 10.041 320.574C12.9032 322.733 16.1916 324.266 19.6907 325.071L23.8008 324.471L30.6138 323.482H25.3421ZM748.658 1.14441e-05H25.3421C18.6234 0.00806607 12.1823 2.66803 7.43148 7.39646C2.68067 12.1249 0.00809349 18.5357 7.35663e-07 25.2227V300.482C-0.00138182 306.195 1.94598 311.738 5.5232 316.205C9.10042 320.673 14.0955 323.798 19.6907 325.071C21.042 325.378 22.4169 325.571 23.8008 325.649C24.3034 325.694 24.8283 325.705 25.3421 325.705H748.658C749.25 325.705 749.831 325.683 750.4 325.638C751.417 325.576 752.428 325.446 753.427 325.249C754.164 325.116 754.901 324.938 755.616 324.738C756.703 324.431 757.767 324.049 758.799 323.593C761.129 322.584 763.287 321.223 765.199 319.558C765.355 319.435 765.512 319.302 765.668 319.158C767.776 317.262 769.547 315.026 770.906 312.543C772.932 308.843 773.996 304.697 774 300.482V25.2227C773.992 18.5357 771.319 12.1249 766.569 7.39646C761.818 2.66803 755.377 0.00806607 748.658 1.14441e-05ZM771.766 300.482C771.766 302.153 771.583 303.82 771.219 305.451C770.792 307.413 770.101 309.309 769.164 311.087C768.294 312.759 767.217 314.316 765.958 315.723V315.734L765.947 315.745C765.858 315.845 765.757 315.956 765.657 316.056C762.899 319.054 759.386 321.265 755.482 322.459C755.125 322.57 754.767 322.67 754.41 322.77C754.253 322.815 754.097 322.848 753.93 322.881C752.824 323.138 751.7 323.309 750.568 323.393C749.933 323.456 749.296 323.486 748.658 323.482H25.3421C24.8283 323.482 24.3145 323.459 23.8008 323.426C17.9538 323.034 12.4744 320.447 8.47071 316.188C4.46705 311.928 2.23778 306.315 2.23372 300.482V175.28C2.23372 174.513 2.23371 173.757 2.24488 173.002C2.8271 127.496 21.4038 84.0513 53.9488 52.0841C86.4938 20.1169 130.385 2.20243 176.11 2.22325H748.658C751.693 2.22265 754.698 2.81713 757.502 3.97275C760.306 5.12836 762.853 6.82247 764.999 8.95828C767.145 11.0941 768.847 13.6298 770.008 16.4205C771.17 19.2112 771.767 22.2022 771.766 25.2227L771.766 300.482ZM25.3421 323.482C24.8283 323.482 24.3145 323.459 23.8008 323.426V324.471L30.6138 323.482H25.3421ZM25.3421 323.482C24.8283 323.482 24.3145 323.459 23.8008 323.426V324.471L30.6138 323.482H25.3421ZM25.3421 323.482C24.8283 323.482 24.3145 323.459 23.8008 323.426V324.471L30.6138 323.482H25.3421ZM25.3421 323.482C24.8283 323.482 24.3145 323.459 23.8008 323.426V324.471L30.6138 323.482H25.3421ZM25.3421 323.482C24.8283 323.482 24.3145 323.459 23.8008 323.426V324.471L30.6138 323.482H25.3421ZM25.3421 323.482C24.8283 323.482 24.3145 323.459 23.8008 323.426V324.471L30.6138 323.482H25.3421ZM25.3421 323.482C24.8283 323.482 24.3145 323.459 23.8008 323.426V324.471L30.6138 323.482H25.3421ZM25.3421 323.482C24.8283 323.482 24.3145 323.459 23.8008 323.426V324.471L30.6138 323.482H25.3421ZM429.207 323.482L468.175 325.705H493.048L506.317 324.982L510.918 324.738L521.339 324.182L527.772 323.837L532.251 323.593H532.262L534.328 323.482H429.207ZM122.835 323.482V325.705H180.756V323.482H122.835ZM25.3421 323.482C24.8283 323.482 24.3145 323.459 23.8008 323.426V324.471L30.6138 323.482H25.3421ZM429.207 323.482L468.175 325.705H493.048L506.317 324.982L510.918 324.738L521.339 324.182L527.772 323.837L532.251 323.593H532.262L534.328 323.482H429.207ZM122.835 323.482V325.705H180.756V323.482H122.835ZM25.3421 323.482C24.8283 323.482 24.3145 323.459 23.8008 323.426V324.471L30.6138 323.482H25.3421ZM748.658 323.482H746.558L746.681 325.705H748.658C749.25 325.705 749.831 325.683 750.4 325.638L750.501 324.249L750.568 323.393C749.933 323.456 749.296 323.486 748.658 323.482ZM429.207 323.482L468.175 325.705H493.048L506.317 324.982L510.918 324.738L521.339 324.182L527.772 323.837L532.251 323.593H532.262L534.328 323.482H429.207ZM122.835 323.482V325.705H180.756V323.482H122.835Z" fill="#3F3D56"/>
</g>
<defs>
<clipPath id="clip0_80_455">
<rect width="774" height="327" fill="white"/>
</clipPath>
</defs>
</svg>
