<?xml version="1.0" encoding="UTF-8"?>

<svg width="678" height="517" viewBox="0 0 678 517" fill="none" xmlns="http://www.w3.org/2000/svg">
<g clip-path="url(#clip0_80_513)">
<path opacity="0.1" d="M115.727 76.0239C112.099 80.4037 110.702 86.5617 109.139 92.351C96.5602 139.007 65.563 176.535 30.2624 203.341C15.3133 214.695 -2.88652 229.923 0.384014 250.28C2.14507 261.213 9.87121 269.262 15.6112 278.166C27.6539 296.812 31.56 322.155 25.82 344.476C19.2922 369.872 1.04606 393.569 6.69336 419.248C10.1758 435.055 22 446.304 33.3674 455.973C51.1016 471.046 69.4007 485.167 88.2647 498.335C100.91 507.16 114.363 515.749 129.1 516.868C142.076 517.856 154.788 512.949 167.108 508.109C177.873 503.874 188.91 499.468 197.602 490.985C203.276 485.446 207.798 478.3 214.101 473.768C228.904 463.125 247.918 469.869 264.893 474.427C304.947 485.123 347.815 481.217 385.93 463.402C444.395 436.069 488.958 378.671 546.146 347.874C570.735 334.629 597.481 326.41 620.249 309.352C633.077 299.639 644.1 287.773 652.822 274.287C670.036 247.87 679.344 214.188 676.656 181.218C673.968 148.248 658.906 116.476 635.251 97.8636C609.928 77.9405 577.944 74.2193 549.132 62.2588C519.393 49.89 492.924 28.6431 463.469 15.3983C439.62 4.69813 413.665 -0.5535 387.509 0.0288795C361.353 0.611259 335.66 7.01287 312.316 18.7639C280.24 34.8999 247.74 72.5464 212.015 75.4048C186.566 77.3806 135.601 52.0371 115.727 76.0239Z" fill="#D7987D"/>
<path d="M574.746 228.592C574.746 228.592 565.107 196.024 576.554 172.057C581.422 162.033 582.89 150.709 580.738 139.785C579.675 134.606 578.137 129.536 576.143 124.636" stroke="#535461" stroke-width="2" stroke-miterlimit="10"/>
<path d="M583.3 109.495C583.3 113.486 576.018 125.058 576.018 125.058C576.018 125.058 568.735 113.486 568.735 109.495C568.661 108.501 568.794 107.503 569.126 106.563C569.457 105.622 569.98 104.76 570.662 104.03C571.343 103.3 572.169 102.717 573.087 102.319C574.005 101.921 574.996 101.715 575.998 101.715C576.999 101.715 577.99 101.921 578.908 102.319C579.827 102.717 580.652 103.3 581.334 104.03C582.016 104.76 582.538 105.622 582.87 106.563C583.201 107.503 583.334 108.501 583.26 109.495H583.3Z" fill="#D7987D"/>
<path d="M595.277 131.598C593.099 134.95 580.652 140.74 580.652 140.74C580.652 140.74 580.877 127.1 583.055 123.747C584.163 122.282 585.788 121.289 587.603 120.969C589.418 120.649 591.287 121.025 592.834 122.021C594.381 123.018 595.491 124.561 595.939 126.34C596.387 128.118 596.141 130 595.25 131.605L595.277 131.598Z" fill="#D7987D"/>
<path d="M594.754 169.383C591.172 171.181 577.54 169.936 577.54 169.936C577.54 169.936 584.657 158.272 588.239 156.474C589.937 155.773 591.839 155.736 593.563 156.372C595.287 157.008 596.706 158.269 597.534 159.903C598.362 161.536 598.538 163.42 598.027 165.177C597.517 166.935 596.357 168.435 594.78 169.376L594.754 169.383Z" fill="#D7987D"/>
<path d="M587.888 197.907C584.664 200.278 570.986 201.352 570.986 201.352C570.986 201.352 576.018 188.66 579.248 186.283C580.803 185.343 582.655 185.016 584.44 185.366C586.225 185.717 587.813 186.719 588.893 188.176C589.972 189.633 590.464 191.439 590.272 193.239C590.08 195.039 589.218 196.702 587.855 197.901L587.888 197.907Z" fill="#D7987D"/>
<path d="M565.425 141.51C568.305 144.289 581.711 147.174 581.711 147.174C581.711 147.174 578.401 133.929 575.548 131.144C574.882 130.401 574.069 129.803 573.161 129.387C572.253 128.97 571.268 128.744 570.268 128.723C569.268 128.702 568.274 128.886 567.349 129.264C566.424 129.641 565.586 130.205 564.89 130.918C564.193 131.632 563.651 132.481 563.298 133.412C562.946 134.343 562.79 135.336 562.84 136.33C562.89 137.324 563.145 138.297 563.59 139.188C564.035 140.079 564.66 140.87 565.425 141.51Z" fill="#D7987D"/>
<path d="M557.818 174.941C561.4 176.739 575.031 175.495 575.031 175.495C575.031 175.495 567.914 163.831 564.332 162.033C562.634 161.331 560.732 161.295 559.008 161.931C557.284 162.567 555.866 163.828 555.038 165.461C554.21 167.095 554.033 168.979 554.544 170.736C555.055 172.493 556.215 173.993 557.791 174.935L557.818 174.941Z" fill="#D7987D"/>
<path d="M554.905 208.445C558.129 210.816 571.807 211.89 571.807 211.89C571.807 211.89 566.775 199.198 563.545 196.821C562.787 196.154 561.899 195.652 560.936 195.346C559.973 195.04 558.956 194.937 557.951 195.043C556.946 195.149 555.974 195.462 555.097 195.963C554.22 196.463 553.457 197.14 552.857 197.949C552.258 198.759 551.834 199.684 551.613 200.665C551.392 201.647 551.379 202.663 551.575 203.65C551.771 204.637 552.171 205.572 552.75 206.396C553.329 207.221 554.074 207.916 554.938 208.439L554.905 208.445Z" fill="#D7987D"/>
<path opacity="0.1" d="M583.3 109.495C583.3 113.486 576.018 125.058 576.018 125.058C576.018 125.058 568.735 113.486 568.735 109.495C568.661 108.501 568.794 107.503 569.126 106.563C569.457 105.622 569.98 104.76 570.662 104.03C571.343 103.3 572.169 102.717 573.087 102.319C574.005 101.921 574.996 101.715 575.998 101.715C576.999 101.715 577.99 101.921 578.908 102.319C579.827 102.717 580.652 103.3 581.334 104.03C582.016 104.76 582.538 105.622 582.87 106.563C583.201 107.503 583.334 108.501 583.26 109.495H583.3Z" fill="#D7987D"/>
<path opacity="0.1" d="M595.277 131.598C593.099 134.95 580.652 140.74 580.652 140.74C580.652 140.74 580.877 127.1 583.055 123.747C584.163 122.282 585.788 121.289 587.603 120.969C589.418 120.649 591.287 121.025 592.834 122.021C594.381 123.018 595.491 124.561 595.939 126.34C596.387 128.118 596.141 130 595.25 131.605L595.277 131.598Z" fill="#D7987D"/>
<path opacity="0.1" d="M594.754 169.383C591.172 171.181 577.54 169.936 577.54 169.936C577.54 169.936 584.657 158.272 588.239 156.474C589.937 155.773 591.839 155.736 593.563 156.372C595.287 157.008 596.706 158.269 597.534 159.903C598.362 161.536 598.538 163.42 598.027 165.177C597.517 166.935 596.357 168.435 594.78 169.376L594.754 169.383Z" fill="#D7987D"/>
<path opacity="0.1" d="M587.888 197.907C584.664 200.278 570.986 201.352 570.986 201.352C570.986 201.352 576.018 188.66 579.248 186.283C580.803 185.343 582.655 185.016 584.44 185.366C586.225 185.717 587.813 186.719 588.893 188.176C589.972 189.633 590.464 191.439 590.272 193.239C590.08 195.039 589.218 196.702 587.855 197.901L587.888 197.907Z" fill="#D7987D"/>
<path opacity="0.1" d="M565.425 141.51C568.305 144.289 581.711 147.174 581.711 147.174C581.711 147.174 578.401 133.929 575.548 131.144C574.882 130.401 574.069 129.803 573.161 129.387C572.253 128.97 571.268 128.744 570.268 128.723C569.268 128.702 568.274 128.886 567.349 129.264C566.424 129.641 565.586 130.205 564.89 130.918C564.193 131.632 563.651 132.481 563.298 133.412C562.946 134.343 562.79 135.336 562.84 136.33C562.89 137.324 563.145 138.297 563.59 139.188C564.035 140.079 564.66 140.87 565.425 141.51Z" fill="#D7987D"/>
<path opacity="0.1" d="M557.818 174.941C561.4 176.739 575.031 175.495 575.031 175.495C575.031 175.495 567.914 163.831 564.332 162.033C562.634 161.331 560.732 161.295 559.008 161.931C557.284 162.567 555.866 163.828 555.038 165.461C554.21 167.095 554.033 168.979 554.544 170.736C555.055 172.493 556.215 173.993 557.791 174.935L557.818 174.941Z" fill="#D7987D"/>
<path opacity="0.1" d="M554.905 208.445C558.129 210.816 571.807 211.89 571.807 211.89C571.807 211.89 566.775 199.198 563.545 196.821C562.787 196.154 561.899 195.652 560.936 195.346C559.973 195.04 558.956 194.937 557.951 195.043C556.946 195.149 555.974 195.462 555.097 195.963C554.22 196.463 553.457 197.14 552.857 197.949C552.258 198.759 551.834 199.684 551.613 200.665C551.392 201.647 551.379 202.663 551.575 203.65C551.771 204.637 552.171 205.572 552.75 206.396C553.329 207.221 554.074 207.916 554.938 208.439L554.905 208.445Z" fill="#D7987D"/>
<path d="M615.132 280.623C615.132 280.623 605.492 248.054 616.939 224.087C621.807 214.064 623.276 202.74 621.123 191.815C620.06 186.637 618.522 181.566 616.529 176.667" stroke="#535461" stroke-width="2" stroke-miterlimit="10"/>
<path d="M623.685 161.525C623.685 165.517 616.403 177.089 616.403 177.089C616.403 177.089 609.12 165.517 609.12 161.525C609.046 160.532 609.179 159.533 609.511 158.593C609.842 157.653 610.365 156.791 611.047 156.061C611.728 155.33 612.554 154.748 613.472 154.35C614.39 153.952 615.381 153.746 616.383 153.746C617.385 153.746 618.375 153.952 619.294 154.35C620.212 154.748 621.038 155.33 621.719 156.061C622.401 156.791 622.924 157.653 623.255 158.593C623.587 159.533 623.719 160.532 623.646 161.525H623.685Z" fill="#D7987D"/>
<path d="M635.662 183.629C633.484 186.981 621.064 192.764 621.064 192.764C621.064 192.764 621.289 179.124 623.467 175.771C623.95 174.901 624.608 174.139 625.4 173.533C626.192 172.926 627.101 172.488 628.07 172.247C629.04 172.005 630.048 171.964 631.034 172.127C632.02 172.29 632.962 172.652 633.801 173.193C634.64 173.733 635.358 174.44 635.91 175.268C636.463 176.097 636.838 177.029 637.012 178.008C637.187 178.987 637.157 179.991 636.925 180.958C636.693 181.925 636.263 182.834 635.662 183.629Z" fill="#D7987D"/>
<path d="M635.139 221.413C631.557 223.211 617.925 221.967 617.925 221.967C617.925 221.967 625.043 210.303 628.624 208.504C629.483 207.992 630.439 207.66 631.432 207.532C632.425 207.403 633.434 207.479 634.396 207.756C635.358 208.033 636.252 208.504 637.023 209.14C637.794 209.776 638.424 210.564 638.875 211.453C639.326 212.343 639.588 213.315 639.644 214.31C639.7 215.305 639.549 216.3 639.201 217.235C638.853 218.169 638.315 219.021 637.62 219.739C636.926 220.457 636.09 221.025 635.165 221.407L635.139 221.413Z" fill="#D7987D"/>
<path d="M628.273 249.938C625.049 252.309 611.371 253.383 611.371 253.383C611.371 253.383 616.403 240.691 619.634 238.313C621.188 237.374 623.04 237.047 624.825 237.397C626.61 237.747 628.199 238.75 629.278 240.207C630.357 241.664 630.849 243.47 630.657 245.27C630.465 247.069 629.603 248.732 628.24 249.931L628.273 249.938Z" fill="#D7987D"/>
<path d="M605.81 193.541C608.69 196.32 622.096 199.205 622.096 199.205C622.096 199.205 618.786 185.96 615.933 183.174C614.524 181.995 612.718 181.39 610.879 181.482C609.04 181.574 607.304 182.356 606.021 183.67C604.738 184.984 604.003 186.733 603.963 188.564C603.924 190.396 604.584 192.174 605.81 193.541Z" fill="#D7987D"/>
<path d="M598.203 226.972C601.785 228.77 615.416 227.525 615.416 227.525C615.416 227.525 608.299 215.861 604.718 214.063C603.019 213.362 601.117 213.326 599.393 213.961C597.669 214.597 596.251 215.859 595.423 217.492C594.595 219.125 594.419 221.01 594.929 222.767C595.44 224.524 596.6 226.024 598.177 226.966L598.203 226.972Z" fill="#D7987D"/>
<path d="M595.29 260.476C598.514 262.847 612.192 263.92 612.192 263.92C612.192 263.92 607.16 251.229 603.93 248.851C603.172 248.185 602.284 247.683 601.321 247.377C600.358 247.071 599.341 246.968 598.336 247.074C597.331 247.18 596.359 247.493 595.482 247.993C594.605 248.494 593.842 249.17 593.242 249.98C592.642 250.79 592.219 251.715 591.998 252.696C591.777 253.677 591.764 254.694 591.96 255.681C592.156 256.667 592.556 257.603 593.135 258.427C593.714 259.252 594.459 259.947 595.323 260.469L595.29 260.476Z" fill="#D7987D"/>
<path opacity="0.1" d="M623.685 161.525C623.685 165.517 616.403 177.089 616.403 177.089C616.403 177.089 609.12 165.517 609.12 161.525C609.046 160.532 609.179 159.533 609.511 158.593C609.842 157.653 610.365 156.791 611.047 156.061C611.728 155.33 612.554 154.748 613.472 154.35C614.39 153.952 615.381 153.746 616.383 153.746C617.385 153.746 618.375 153.952 619.294 154.35C620.212 154.748 621.038 155.33 621.719 156.061C622.401 156.791 622.924 157.653 623.255 158.593C623.587 159.533 623.719 160.532 623.646 161.525H623.685Z" fill="#D7987D"/>
<path opacity="0.1" d="M635.662 183.629C633.484 186.981 621.064 192.764 621.064 192.764C621.064 192.764 621.289 179.124 623.467 175.771C623.95 174.901 624.608 174.139 625.4 173.533C626.192 172.926 627.101 172.488 628.07 172.247C629.04 172.005 630.048 171.964 631.034 172.127C632.02 172.29 632.962 172.652 633.801 173.193C634.64 173.733 635.358 174.44 635.91 175.268C636.463 176.097 636.838 177.029 637.012 178.008C637.187 178.987 637.157 179.991 636.925 180.958C636.693 181.925 636.263 182.834 635.662 183.629Z" fill="#D7987D"/>
<path opacity="0.1" d="M635.139 221.413C631.557 223.211 617.925 221.967 617.925 221.967C617.925 221.967 625.043 210.303 628.624 208.504C629.483 207.992 630.439 207.66 631.432 207.532C632.425 207.403 633.434 207.479 634.396 207.756C635.358 208.033 636.252 208.504 637.023 209.14C637.794 209.776 638.424 210.564 638.875 211.453C639.326 212.343 639.588 213.315 639.644 214.31C639.7 215.305 639.549 216.3 639.201 217.235C638.853 218.169 638.315 219.021 637.62 219.739C636.926 220.457 636.09 221.025 635.165 221.407L635.139 221.413Z" fill="#D7987D"/>
<path opacity="0.1" d="M628.273 249.938C625.049 252.309 611.371 253.383 611.371 253.383C611.371 253.383 616.403 240.691 619.634 238.313C621.188 237.374 623.04 237.047 624.825 237.397C626.61 237.747 628.199 238.75 629.278 240.207C630.357 241.664 630.849 243.47 630.657 245.27C630.465 247.069 629.603 248.732 628.24 249.931L628.273 249.938Z" fill="#D7987D"/>
<path opacity="0.1" d="M605.81 193.541C608.69 196.32 622.096 199.205 622.096 199.205C622.096 199.205 618.786 185.96 615.933 183.174C614.524 181.995 612.718 181.39 610.879 181.482C609.04 181.574 607.304 182.356 606.021 183.67C604.738 184.984 604.003 186.733 603.963 188.564C603.924 190.396 604.584 192.174 605.81 193.541Z" fill="#D7987D"/>
<path opacity="0.1" d="M598.203 226.972C601.785 228.77 615.416 227.525 615.416 227.525C615.416 227.525 608.299 215.861 604.718 214.063C603.019 213.362 601.117 213.326 599.393 213.961C597.669 214.597 596.251 215.859 595.423 217.492C594.595 219.125 594.419 221.01 594.929 222.767C595.44 224.524 596.6 226.024 598.177 226.966L598.203 226.972Z" fill="#D7987D"/>
<path opacity="0.1" d="M595.29 260.476C598.514 262.847 612.192 263.92 612.192 263.92C612.192 263.92 607.16 251.229 603.93 248.851C603.172 248.185 602.284 247.683 601.321 247.377C600.358 247.071 599.341 246.968 598.336 247.074C597.331 247.18 596.359 247.493 595.482 247.993C594.605 248.494 593.842 249.17 593.242 249.98C592.642 250.79 592.219 251.715 591.998 252.696C591.777 253.677 591.764 254.694 591.96 255.681C592.156 256.667 592.556 257.603 593.135 258.427C593.714 259.252 594.459 259.947 595.323 260.469L595.29 260.476Z" fill="#D7987D"/>
<path opacity="0.1" d="M357.47 389.512C537.295 372.066 680.783 334.58 677.96 305.785C675.137 276.989 527.072 267.788 347.248 285.234C167.423 302.68 23.9347 340.166 26.7575 368.962C29.5804 397.757 177.645 406.958 357.47 389.512Z" fill="#D7987D"/>
<path d="M649.624 310.373C661.866 285.411 659.337 244.781 658.032 230.99C657.748 227.973 657.523 226.241 657.523 226.241C657.523 226.241 646.731 224.548 650.71 211.554C652.657 205.192 645.745 201.675 638.197 199.745C632.801 198.461 627.295 197.687 621.752 197.433L517.221 191.012C502.887 168.382 474.684 172.017 474.684 172.017C474.684 172.017 449.526 169.416 431.69 169.146C428.984 166.773 426.017 164.712 422.845 163.001C420.956 161.871 418.944 160.959 416.847 160.281C414.299 159.549 411.613 159.421 409.006 159.907C406.398 160.393 403.942 161.48 401.832 163.08C400.804 163.816 399.967 164.784 399.389 165.905C399.167 166.415 399 166.947 398.892 167.493C398.624 168.423 398.403 169.366 398.23 170.318C398.075 170.776 397.852 171.209 397.568 171.602C396.853 172.61 395.622 173.367 395.463 174.586C395.459 174.656 395.459 174.726 395.463 174.797C395.332 175.029 395.245 175.284 395.205 175.547C395.157 176.09 395.275 176.634 395.542 177.108C395.582 177.187 395.629 177.26 395.675 177.332C394.795 178.6 394.076 179.972 393.536 181.416C393.292 181.548 393.055 181.696 392.828 181.857L392.629 182.002V182.404L392.517 182.489L392.272 188.977L392.411 189.082C392.611 192.108 393.529 195.044 395.09 197.65C396.65 200.255 398.808 202.456 401.388 204.072C401.474 204.487 401.554 204.908 401.633 205.35C401.997 207.477 402.161 209.633 402.123 211.791H402.011C398.899 210.474 393.576 212.41 389.001 214.669H329.735C341.294 199.877 355.435 188.404 355.435 188.404V175.403C345.333 174.902 256.578 217.317 237.12 226.682L236.26 227.097L136.257 230.18C118.143 230.068 102.307 232.715 88.5891 237.029C65.666 244.192 45.0669 257.284 28.8986 274.965C17.0876 287.861 11.9103 298.518 11.9103 298.518L12.0229 299.413L11.9103 299.644L12.0692 299.782L14.7638 320.937L16.6175 335.492C3.73399 343.778 20.4243 347.097 20.4243 347.097C36.3135 360.651 61.8753 360.092 61.8753 360.092C68.1185 368.568 86.2918 367.435 86.2918 367.435H181.687C183.173 358.722 185.162 350.102 187.645 341.617C191.717 370.787 214.855 393.134 242.781 393.134C244.852 393.133 246.921 393.008 248.978 392.759C251.034 393.008 253.103 393.133 255.174 393.134C283.424 393.134 306.768 370.26 310.442 340.603H315.11C314.238 347.229 312.724 353.756 310.588 360.092C396.33 335.235 555.891 323.374 555.891 323.374C556.553 317.117 557.282 311.071 558.069 305.268C564.644 321.503 579.546 332.838 596.892 332.838C598.468 332.836 600.042 332.739 601.606 332.548C603.17 332.739 604.744 332.836 606.32 332.838C626.916 332.838 644.057 316.853 647.923 295.659C648.435 299.4 648.727 303.167 648.797 306.941C648.062 310.537 647.42 312.836 647.334 313.159C647.85 312.219 648.34 311.257 648.803 310.274C648.803 310.656 648.803 311.051 648.803 311.446C648.645 312.105 648.532 312.474 648.499 312.599L648.79 312.059C648.79 312.348 648.79 312.632 648.79 312.921C648.724 312.948 649.075 311.999 649.624 310.373Z" fill="url(#paint0_linear_80_513)"/>
<path d="M639.621 220.682H443.058V299.565H639.621V220.682Z" fill="#6F7D95"/>
<path d="M393.08 183.741L420.998 245.96L476.286 242.627L478.517 217.073L480.192 187.073L402.017 181.514L393.08 183.741Z" fill="#4B5C7A"/>
<path d="M393.08 183.74C393.08 183.74 403.672 173.743 416.536 171.517C429.4 169.29 472.38 173.736 472.38 173.736L478.524 184.274L477.372 189.293L393.08 183.74Z" fill="#FF4D52"/>
<path d="M498.339 215.683H300.101V273.457H498.339V215.683Z" fill="#4B5C7A"/>
<path d="M449.566 254.99C454.803 237.569 444.362 226.123 444.362 226.123L427.056 214.109C427.042 214.15 427.024 214.19 427.003 214.228C424.752 211.604 423.141 208.498 422.296 205.152C422.243 204.941 422.197 204.724 422.144 204.494C423.726 203.324 425.111 201.913 426.248 200.311C429.069 198.592 430.327 195.826 430.803 193.067C432.618 190.388 434.063 187.48 435.1 184.419C435.271 183.924 435.417 183.421 435.537 182.911C435.87 181.962 436.019 180.958 435.974 179.954C435.833 178.835 435.459 177.758 434.875 176.792C431.962 171.523 426.718 167.855 421.402 164.865C419.544 163.754 417.565 162.857 415.503 162.191C412.997 161.472 410.357 161.347 407.793 161.825C405.23 162.303 402.814 163.371 400.74 164.944C399.728 165.667 398.904 166.62 398.336 167.723C398.117 168.224 397.953 168.748 397.846 169.284C397.589 170.199 397.379 171.127 397.217 172.063C397.073 172.511 396.864 172.935 396.595 173.321C395.887 174.309 394.682 175.053 394.523 176.259C394.519 176.329 394.519 176.399 394.523 176.47C394.395 176.698 394.31 176.948 394.271 177.207C394.222 177.74 394.338 178.276 394.602 178.742C394.642 178.821 394.688 178.893 394.735 178.966C393.868 180.213 393.161 181.562 392.629 182.983C392.387 183.114 392.152 183.259 391.928 183.418L391.736 183.556V183.951L391.623 184.037L391.378 190.419L391.511 190.524C391.706 193.501 392.608 196.389 394.142 198.953C395.676 201.516 397.798 203.681 400.336 205.271C400.422 205.679 400.501 206.094 400.574 206.529C400.974 208.827 401.134 211.16 401.051 213.49C401.025 213.289 401.025 213.085 401.051 212.884C396.264 210.731 385.824 216.685 381.62 219.319C380.982 219.619 380.388 220.003 379.852 220.458L379.779 220.511C376.886 222.843 371.172 229.323 366.637 245.98C360.348 269.222 361.003 274.491 356.422 279.879C351.84 285.266 347.292 323.222 347.292 323.222L356.515 325.692L357.693 321.925C368.657 331.87 399.356 336.658 399.356 336.658L400.296 333.753C405.003 335.44 412.875 332.878 412.875 332.878C424.381 328.834 428.691 318.572 437.04 305.038C445.388 291.503 449.566 254.99 449.566 254.99ZM403.156 325.02L424.408 259.442C426.334 269.624 417.834 285.661 417.079 296.147C416.609 302.891 408.717 316.294 403.156 325.02Z" fill="url(#paint1_linear_80_513)"/>
<path d="M429.744 185.986C429.744 185.986 433.445 200.008 422.462 202.452C411.478 204.895 418.714 196.149 418.714 196.149L429.307 185.881L429.744 185.986Z" fill="#472727"/>
<path d="M383.824 219.405C383.824 219.405 375.654 222.698 369.65 244.88C363.645 267.062 364.241 272.067 359.918 277.224C355.594 282.381 351.165 318.566 351.165 318.566L359.812 320.884L367.339 296.7L388.041 232.814L383.824 219.405Z" fill="#DDE0E4"/>
<path opacity="0.05" d="M383.824 219.405C383.824 219.405 375.654 222.698 369.65 244.88C363.645 267.062 364.241 272.067 359.918 277.224C355.594 282.381 351.165 318.566 351.165 318.566L359.812 320.884L367.339 296.7L388.041 232.814L383.824 219.405Z" fill="black"/>
<path d="M429.188 216.902C429.188 216.902 394.986 234.197 399.992 222.915C402.468 217.343 402.375 211.567 401.653 207.108C401.241 204.482 400.519 201.913 399.502 199.455C399.502 199.455 422.753 181.159 421.389 196.096C421.062 199.311 421.286 202.558 422.051 205.699C424.064 213.622 429.188 216.902 429.188 216.902Z" fill="#DB8B8B"/>
<path opacity="0.1" d="M422.051 205.725C419.852 207.482 417.265 208.697 414.504 209.269C411.742 209.841 408.884 209.755 406.162 209.018C404.57 208.592 403.044 207.952 401.627 207.115C401.215 204.488 400.493 201.92 399.475 199.462C399.475 199.462 422.726 181.165 421.363 196.103C421.042 199.326 421.275 202.58 422.051 205.725Z" fill="black"/>
<path d="M428.375 195.568C430.946 186.071 425.29 176.299 415.744 173.741C406.197 171.184 396.373 176.81 393.803 186.308C391.232 195.805 396.888 205.577 406.435 208.134C415.982 210.692 425.805 205.066 428.375 195.568Z" fill="#DB8B8B"/>
<path opacity="0.1" d="M402.097 182.252C401.606 182.551 401.059 182.747 400.49 182.83C399.92 182.913 399.34 182.881 398.783 182.735C398.227 182.589 397.705 182.333 397.251 181.982C396.796 181.631 396.418 181.192 396.138 180.691C395.893 180.245 395.787 179.736 395.834 179.229C395.986 178.083 397.125 177.372 397.82 176.423C398.899 174.889 398.694 172.788 399.475 171.082C400.013 170.04 400.788 169.138 401.739 168.447C403.674 166.943 405.939 165.915 408.35 165.448C410.761 164.981 413.248 165.088 415.609 165.76C417.541 166.387 419.394 167.234 421.131 168.283C426.109 171.108 431.015 174.566 433.71 179.591C434.256 180.513 434.603 181.538 434.729 182.601C434.759 183.749 434.556 184.892 434.133 185.96C433.138 188.912 431.751 191.718 430.009 194.305C429.426 193.585 428.695 192.999 427.864 192.586C427.444 192.389 426.973 192.328 426.517 192.411C426.061 192.495 425.642 192.72 425.322 193.053C424.746 193.784 424.395 195.181 423.521 194.851C422.951 194.641 422.958 193.857 422.984 193.251C423.104 190.616 421.66 188.134 419.721 186.355C417.781 184.577 415.378 183.405 413.007 182.252C411.306 181.422 409.035 179.519 407.168 179.183C404.851 178.755 403.759 181.231 402.097 182.252Z" fill="black"/>
<path d="M402.342 181.35C401.851 181.648 401.304 181.845 400.734 181.928C400.165 182.011 399.585 181.978 399.028 181.833C398.472 181.687 397.95 181.431 397.496 181.079C397.041 180.728 396.663 180.289 396.383 179.789C396.138 179.342 396.032 178.833 396.079 178.327C396.231 177.181 397.37 176.469 398.065 175.521C399.144 173.986 398.939 171.885 399.72 170.18C400.258 169.138 401.033 168.236 401.984 167.545C403.919 166.04 406.184 165.013 408.595 164.546C411.006 164.079 413.493 164.186 415.854 164.858C417.786 165.485 419.639 166.331 421.376 167.38C426.354 170.206 431.26 173.664 433.955 178.689C434.501 179.611 434.848 180.636 434.974 181.699C435.004 182.847 434.801 183.989 434.378 185.058C433.383 188.009 431.996 190.816 430.254 193.402C429.671 192.683 428.94 192.096 428.109 191.683C427.689 191.486 427.218 191.425 426.762 191.509C426.306 191.593 425.887 191.818 425.566 192.151C424.991 192.882 424.64 194.278 423.766 193.949C423.196 193.738 423.203 192.955 423.229 192.349C423.349 189.714 421.905 187.231 419.966 185.453C418.026 183.675 415.622 182.502 413.252 181.35C411.551 180.52 409.28 178.616 407.413 178.281C405.096 177.846 404.003 180.329 402.342 181.35Z" fill="#472727"/>
<path d="M411.716 219.26C411.716 219.26 425.878 216.5 426.493 214.241L442.687 225.615C442.687 225.615 452.433 236.476 447.447 253.099C447.447 253.099 443.389 287.933 435.497 300.862C427.606 313.791 423.071 330.539 412.259 334.451C412.259 334.451 401.865 327.786 398.436 327.865C398.436 327.865 416.04 302.489 416.794 292.498C417.549 282.506 425.593 267.187 423.832 257.492L399.998 331.191C399.998 331.191 361.599 325.264 357.706 312.585C357.706 312.585 361.017 307.639 360.401 302.627C359.785 297.615 374.887 259.909 374.887 259.909L382.116 220.59C382.116 220.59 396.416 210.652 402.11 213.233C402.084 213.194 401.051 218.1 411.716 219.26Z" fill="#DDE0E4"/>
<g opacity="0.1">
<path d="M416.874 188.687C413.378 183.945 406.711 187.837 405.619 188.516L403.904 188.344C402.408 186.724 397.82 182.417 393.51 185.585L393.325 185.723L393.066 191.802L393.252 191.947C394.497 192.903 395.909 193.622 397.416 194.068C398.371 194.347 399.378 194.396 400.356 194.213C401.079 194.047 401.757 193.725 402.341 193.269C402.926 192.814 403.403 192.237 403.739 191.578L404.632 191.637L405.295 191.512C405.427 192.213 405.708 192.877 406.119 193.461C406.53 194.044 407.062 194.534 407.678 194.898C410.637 196.564 414.96 194.898 415.139 194.865L415.364 194.779L416.953 188.898L416.874 188.687ZM414.629 194.035C413.749 194.331 410.425 195.306 408.194 194.035C407.639 193.688 407.171 193.22 406.826 192.665C406.482 192.11 406.27 191.483 406.208 190.834L406.129 190.353L404.679 190.649L403.222 190.597L403.083 190.873C402.817 191.472 402.417 192.001 401.913 192.422C401.41 192.842 400.815 193.141 400.177 193.297C397.681 193.831 394.794 191.907 394.04 191.361L394.258 186.224C398.005 183.714 402.137 187.784 403.328 189.115L403.454 189.253L405.87 189.49L406.016 189.392C406.082 189.352 412.087 185.341 415.51 188.568C415.68 188.725 415.837 188.894 415.98 189.075L414.629 194.035Z" fill="black"/>
<path d="M427.718 191.743L416.463 190.814L415.536 190.636L415.954 189.082C415.81 188.901 415.653 188.731 415.483 188.575L416.847 188.707L426.056 189.602L427.718 191.743Z" fill="black"/>
</g>
<path d="M416.993 188.265C413.497 183.523 406.83 187.416 405.738 188.094L404.023 187.923C402.527 186.303 397.939 181.995 393.629 185.163L393.444 185.302L393.186 191.381L393.371 191.525C394.616 192.482 396.028 193.201 397.535 193.646C398.49 193.925 399.497 193.975 400.475 193.791C401.198 193.625 401.876 193.303 402.461 192.848C403.045 192.393 403.522 191.815 403.858 191.157L404.752 191.216L405.414 191.091C405.546 191.791 405.827 192.455 406.238 193.039C406.649 193.623 407.181 194.113 407.797 194.476C410.756 196.142 415.08 194.476 415.258 194.443L415.484 194.357L417.072 188.476L416.993 188.265ZM414.749 193.613C413.868 193.91 410.545 194.884 408.313 193.613C407.758 193.267 407.29 192.798 406.946 192.243C406.601 191.688 406.39 191.062 406.327 190.412L406.248 189.932L404.798 190.228L403.361 190.136L403.222 190.412C402.961 191.014 402.564 191.548 402.063 191.973C401.561 192.398 400.968 192.702 400.329 192.862C397.833 193.396 394.947 191.473 394.192 190.926L394.41 185.789C398.158 183.28 402.289 187.35 403.481 188.68L403.606 188.819L406.023 189.056L406.168 188.957C406.235 188.917 412.239 184.906 415.662 188.134C415.832 188.29 415.989 188.46 416.132 188.641L414.749 193.613Z" fill="#472727"/>
<path d="M427.824 191.321L416.609 190.393L415.682 190.215L416.099 188.66C415.956 188.479 415.799 188.31 415.629 188.153L416.993 188.285L426.202 189.181L427.824 191.321Z" fill="#472727"/>
<path d="M350.914 260.68H154.351V339.562H350.914V260.68Z" fill="#6F7D95"/>
<path d="M244.31 391.224C274.603 391.224 299.161 364.488 299.161 331.508C299.161 298.527 274.603 271.791 244.31 271.791C214.017 271.791 189.459 298.527 189.459 331.508C189.459 364.488 214.017 391.224 244.31 391.224Z" fill="#4B5C7A"/>
<path opacity="0.05" d="M244.31 391.224C274.603 391.224 299.161 364.488 299.161 331.508C299.161 298.527 274.603 271.791 244.31 271.791C214.017 271.791 189.459 298.527 189.459 331.508C189.459 364.488 214.017 391.224 244.31 391.224Z" fill="black"/>
<path d="M256.498 391.224C286.792 391.224 311.349 364.488 311.349 331.508C311.349 298.527 286.792 271.791 256.498 271.791C226.205 271.791 201.648 298.527 201.648 331.508C201.648 364.488 226.205 391.224 256.498 391.224Z" fill="#4B5C7A"/>
<path opacity="0.05" d="M255.28 356.061C268.743 356.061 279.657 345.204 279.657 331.811C279.657 318.417 268.743 307.56 255.28 307.56C241.817 307.56 230.904 318.417 230.904 331.811C230.904 345.204 241.817 356.061 255.28 356.061Z" fill="black"/>
<path d="M255.28 339.088C259.321 339.088 262.596 335.83 262.596 331.811C262.596 327.791 259.321 324.533 255.28 324.533C251.24 324.533 247.965 327.791 247.965 331.811C247.965 335.83 251.24 339.088 255.28 339.088Z" stroke="#6F7D95" stroke-width="2" stroke-miterlimit="10"/>
<path d="M255.28 320.897C256.29 320.897 257.108 320.083 257.108 319.08C257.108 318.076 256.29 317.262 255.28 317.262C254.271 317.262 253.453 318.076 253.453 319.08C253.453 320.083 254.271 320.897 255.28 320.897Z" fill="#6F7D95"/>
<path d="M266.454 323.982C267.227 323.337 267.328 322.19 266.679 321.421C266.03 320.652 264.878 320.552 264.105 321.197C263.332 321.843 263.231 322.989 263.879 323.758C264.528 324.527 265.681 324.628 266.454 323.982Z" fill="#6F7D95"/>
<path d="M270.817 332.785C270.992 331.796 270.328 330.853 269.334 330.679C268.341 330.504 267.393 331.165 267.218 332.153C267.042 333.142 267.706 334.085 268.7 334.259C269.694 334.433 270.641 333.773 270.817 332.785Z" fill="#6F7D95"/>
<path d="M264.707 343.24C265.581 342.738 265.88 341.626 265.376 340.757C264.871 339.887 263.754 339.59 262.88 340.091C262.006 340.593 261.706 341.705 262.211 342.575C262.715 343.444 263.833 343.742 264.707 343.24Z" fill="#6F7D95"/>
<path d="M255.086 344.224C255.431 343.281 254.942 342.237 253.994 341.894C253.046 341.551 251.997 342.037 251.652 342.981C251.307 343.924 251.796 344.967 252.744 345.31C253.693 345.654 254.741 345.167 255.086 344.224Z" fill="#6F7D95"/>
<path d="M245.798 338.61C246.746 338.267 247.235 337.223 246.89 336.28C246.545 335.337 245.496 334.85 244.548 335.194C243.6 335.537 243.111 336.58 243.456 337.524C243.801 338.467 244.85 338.953 245.798 338.61Z" fill="#6F7D95"/>
<path d="M246.651 327.254C247.155 326.384 246.856 325.273 245.982 324.771C245.108 324.269 243.99 324.567 243.486 325.436C242.981 326.305 243.28 327.417 244.154 327.919C245.028 328.421 246.146 328.123 246.651 327.254Z" fill="#6F7D95"/>
<path d="M650.624 285.358C648.751 298.228 643.54 312.315 643.54 312.315C643.576 311.437 643.598 310.57 643.607 309.714C643.607 308.607 643.607 307.514 643.607 306.421C642.944 270.948 623.513 249.062 610.981 238.583C607.723 235.822 604.22 233.362 600.514 231.233H634.576C634.576 231.233 647.976 258.454 650.77 271.784C651.578 275.525 651.352 280.353 650.624 285.358Z" fill="#FF4D52"/>
<path opacity="0.05" d="M650.624 285.358C648.751 298.228 643.54 312.315 643.54 312.315C643.576 311.437 643.598 310.57 643.607 309.714C643.607 308.607 643.607 307.514 643.607 306.421C642.944 270.948 623.513 249.062 610.981 238.583C607.723 235.822 604.22 233.362 600.514 231.233H634.576C634.576 231.233 647.976 258.454 650.77 271.784C651.578 275.525 651.352 280.353 650.624 285.358Z" fill="black"/>
<path d="M592.549 331.929C615.588 331.929 634.265 311.595 634.265 286.511C634.265 261.427 615.588 241.093 592.549 241.093C569.51 241.093 550.833 261.427 550.833 286.511C550.833 311.595 569.51 331.929 592.549 331.929Z" fill="#4B5C7A"/>
<path opacity="0.05" d="M592.549 331.929C615.588 331.929 634.265 311.595 634.265 286.511C634.265 261.427 615.588 241.093 592.549 241.093C569.51 241.093 550.833 261.427 550.833 286.511C550.833 311.595 569.51 331.929 592.549 331.929Z" fill="black"/>
<path d="M601.818 331.929C624.857 331.929 643.534 311.595 643.534 286.511C643.534 261.427 624.857 241.093 601.818 241.093C578.779 241.093 560.102 261.427 560.102 286.511C560.102 311.595 578.779 331.929 601.818 331.929Z" fill="#4B5C7A"/>
<path opacity="0.05" d="M600.891 305.183C611.129 305.183 619.428 296.926 619.428 286.741C619.428 276.557 611.129 268.3 600.891 268.3C590.653 268.3 582.354 276.557 582.354 286.741C582.354 296.926 590.653 305.183 600.891 305.183Z" fill="black"/>
<path d="M600.891 292.274C603.962 292.274 606.452 289.797 606.452 286.741C606.452 283.686 603.962 281.209 600.891 281.209C597.819 281.209 595.33 283.686 595.33 286.741C595.33 289.797 597.819 292.274 600.891 292.274Z" stroke="#6F7D95" stroke-width="2" stroke-miterlimit="10"/>
<path d="M600.891 278.443C601.659 278.443 602.281 277.824 602.281 277.06C602.281 276.296 601.659 275.677 600.891 275.677C600.123 275.677 599.501 276.296 599.501 277.06C599.501 277.824 600.123 278.443 600.891 278.443Z" fill="#6F7D95"/>
<path d="M609.393 280.788C609.982 280.297 610.058 279.424 609.565 278.839C609.071 278.254 608.194 278.178 607.606 278.669C607.018 279.16 606.941 280.032 607.435 280.617C607.928 281.203 608.805 281.279 609.393 280.788Z" fill="#6F7D95"/>
<path d="M612.706 287.488C612.84 286.736 612.335 286.018 611.579 285.886C610.822 285.753 610.101 286.255 609.968 287.008C609.835 287.76 610.34 288.477 611.096 288.61C611.852 288.743 612.573 288.24 612.706 287.488Z" fill="#6F7D95"/>
<path d="M608.066 295.438C608.731 295.056 608.959 294.21 608.575 293.549C608.191 292.887 607.34 292.661 606.675 293.043C606.01 293.425 605.783 294.271 606.167 294.932C606.55 295.594 607.401 295.82 608.066 295.438Z" fill="#6F7D95"/>
<path d="M600.747 296.185C601.01 295.467 600.638 294.673 599.916 294.412C599.195 294.151 598.397 294.521 598.134 295.238C597.871 295.956 598.243 296.75 598.965 297.011C599.687 297.272 600.484 296.902 600.747 296.185Z" fill="#6F7D95"/>
<path d="M593.68 291.909C594.402 291.648 594.774 290.854 594.511 290.136C594.248 289.419 593.451 289.048 592.729 289.31C592.007 289.571 591.635 290.365 591.898 291.082C592.161 291.8 592.958 292.17 593.68 291.909Z" fill="#6F7D95"/>
<path d="M594.336 283.274C594.72 282.613 594.492 281.767 593.828 281.385C593.163 281.003 592.312 281.23 591.928 281.891C591.544 282.553 591.772 283.399 592.437 283.781C593.102 284.163 593.952 283.936 594.336 283.274Z" fill="#6F7D95"/>
<path d="M22.2913 337.62L17.2465 298.175H76.9966L107.709 325.396L92.6342 360.394C92.6342 360.394 31.8116 350.397 22.2913 337.62Z" fill="#FF4D52"/>
<path opacity="0.05" d="M107.729 325.396L92.6541 360.394C92.6541 360.394 31.8116 350.397 22.2913 337.62L22.0728 335.901L17.4384 299.426L17.3921 299.064L17.2795 298.182H77.0297L107.729 325.396Z" fill="black"/>
<path d="M355.111 177.075V189.853C355.111 189.853 324.233 214.88 316.884 238.491C315.601 242.325 315.117 246.379 315.461 250.406C318.255 276.513 235.061 229.29 235.061 229.29L238.762 227.499C257.889 218.324 345.174 176.575 355.111 177.075Z" fill="#7597CE"/>
<path d="M425.474 238.742C425.474 238.742 454.392 224.608 459.033 214.149C459.656 212.746 460.245 211.33 460.933 209.953C463.8 204.217 469.825 190.761 466.792 184.3C462.886 175.969 476.286 185.413 476.286 185.413L468.467 224.845L449.48 235.383L424.911 238.742" fill="#FF4D52"/>
<path opacity="0.05" d="M425.474 238.742C425.474 238.742 454.392 224.608 459.033 214.149C459.656 212.746 460.245 211.33 460.933 209.953C463.8 204.217 469.825 190.761 466.792 184.3C462.886 175.969 476.286 185.413 476.286 185.413L468.467 224.845L449.48 235.383L424.911 238.742" fill="black"/>
<path opacity="0.05" d="M107.729 325.396L92.654 360.394C92.654 360.394 31.8115 350.397 22.2912 337.62L22.0728 335.901C22.3177 335.736 22.5759 335.565 22.8474 335.4C22.8474 335.4 41.2722 349.843 83.1602 353.183C83.1602 353.183 108.318 333.18 67.5226 310.965C67.5226 310.965 32.0366 312.072 17.4185 299.433L17.2596 299.301L17.3722 299.071C17.4693 298.882 17.626 298.588 17.8423 298.188H77.0098L107.729 325.396Z" fill="black"/>
<path opacity="0.05" d="M315.461 250.399C318.255 276.513 235.061 229.29 235.061 229.29L238.762 227.499C241.212 230.094 250.99 238.847 270.541 237.899C283.12 237.286 302.22 237.846 316.917 238.485C315.623 242.317 315.128 246.37 315.461 250.399Z" fill="black"/>
<path opacity="0.05" d="M350.92 260.68V339.562H314.402C316.811 321.213 315.421 294.467 291.998 279.134C283.261 273.454 273.118 270.284 262.685 269.975C252.253 269.666 241.937 272.229 232.877 277.383C217.524 286.103 200.357 303.833 189.446 339.562H154.357V260.68H350.92Z" fill="black"/>
<path opacity="0.05" d="M650.624 285.358C649.247 294.065 647.036 302.522 643.613 309.727C643.172 310.697 642.691 311.644 642.17 312.566C642.256 312.243 642.885 309.991 643.613 306.447C647.162 289.191 653.233 241.442 612.556 238.715C612.027 238.682 611.504 238.649 610.981 238.63C607.725 235.852 604.222 233.377 600.514 231.233H634.576C634.576 231.233 647.976 258.454 650.77 271.784C651.578 275.525 651.352 280.353 650.624 285.358Z" fill="black"/>
<path d="M643.275 312.026C643.805 310.122 662.673 241.468 613.662 238.182C563.962 234.849 557.818 272.067 552.237 322.623C552.237 322.623 395.331 334.287 310.999 358.735C310.999 358.735 331.244 303.543 293.123 278.581C284.387 272.9 274.243 269.731 263.811 269.421C253.378 269.112 243.063 271.676 234.002 276.829C215.2 287.512 193.663 311.736 184.242 365.953H90.4164C90.4164 365.953 72.541 367.066 66.4038 358.708C66.4038 358.708 41.2458 359.262 25.6413 345.931C25.6413 345.931 8.89137 342.599 22.2913 334.267C22.2913 334.267 41.2789 348.711 83.1603 352.05C83.1603 352.05 108.318 332.048 67.5226 309.833C67.5226 309.833 31.7719 310.946 17.2663 298.168C17.2663 298.168 22.3575 287.69 33.9765 275.012C49.8684 257.621 70.1178 244.741 92.6541 237.688C107.839 233.018 123.667 230.746 139.56 230.957L238.12 227.901C238.12 227.901 247.64 240.125 270.507 239.012C293.375 237.899 338.076 240.678 338.076 240.678H338.52L430.492 236.535C433.133 236.164 435.745 235.614 438.311 234.889C451.645 231.286 476.935 220.36 472.374 189.846L617.005 198.737C622.456 198.986 627.872 199.747 633.179 201.009C640.607 202.906 647.4 206.371 645.487 212.627C641.581 225.405 652.187 227.071 652.187 227.071C652.187 227.071 652.412 228.777 652.69 231.74C654.014 245.716 656.616 287.736 643.275 312.026Z" fill="#FF4D52"/>
<path opacity="0.05" d="M200.986 250.959C200.986 250.959 140.673 251.512 101.016 286.524H123.353C123.353 286.524 185.897 270.414 200.972 257.637L200.986 250.959Z" fill="black"/>
<path d="M200.423 250.399C200.423 250.399 140.11 250.952 100.453 285.964H122.791C122.791 285.964 185.335 269.855 200.409 257.077L200.423 250.399Z" fill="#FFEC9F"/>
<path opacity="0.05" d="M93.2102 238.248V253.178L42.4044 276.513L34.5392 275.571C50.4293 258.182 70.6762 245.302 93.2102 238.248Z" fill="black"/>
<path d="M92.6474 237.694V252.625L41.835 275.953L33.9698 275.011C49.8626 257.623 70.1119 244.745 92.6474 237.694Z" fill="#FFEC9F"/>
<path opacity="0.05" d="M164.685 305.4C164.685 305.4 137.323 322.063 134.529 358.748H150.166C150.166 358.748 156.31 318.75 174.179 305.4H164.685Z" fill="black"/>
<path opacity="0.05" d="M488.018 306.513L346.173 323.176C346.173 323.176 336.792 263.769 338.527 240.658L430.499 236.515C433.137 236.151 435.747 235.607 438.311 234.889V240.401L507.555 223.738C507.555 223.738 519.286 240.955 488.018 306.513Z" fill="black"/>
<path d="M472.38 173.736C472.38 173.736 502.537 169.85 515.936 195.405L472.81 193.752L472.38 173.736Z" fill="#FF4D52"/>
<path opacity="0.05" d="M513.844 204.362C512.659 208.057 513.553 212.12 520.419 214.933C526.132 217.277 532.832 214.564 534.785 208.735C535.924 205.337 535.143 201.49 528.986 198.362C522.829 195.233 515.917 197.907 513.844 204.362Z" fill="black"/>
<path d="M18.3256 306.5C18.3256 306.5 54.1161 324.941 79.8036 317.96" stroke="#FF4D52" stroke-miterlimit="10"/>
<path d="M19.5901 316.458C19.5901 316.458 42.7155 334.201 89.4564 330.078" stroke="#FF4D52" stroke-miterlimit="10"/>
<path d="M20.656 324.816C20.656 324.816 43.5961 344.62 90.7341 338.344" stroke="#FF4D52" stroke-miterlimit="10"/>
<path opacity="0.05" d="M514.209 192.421C514.209 192.421 495.552 208.445 478.524 215.69C478.524 215.69 504.384 220.267 514.209 192.421Z" fill="black"/>
<path opacity="0.1" d="M316.56 239.585C316.56 239.585 405.089 247.903 438.589 240.125C438.589 240.125 440.377 241.304 429.711 236.548L316.56 239.585Z" fill="black"/>
<path opacity="0.05" d="M652.696 231.741C647.181 228.138 638.436 220.663 639.627 212.344C640.223 208.175 637.257 204.276 633.186 201.003C640.614 202.9 647.407 206.364 645.493 212.621C641.587 225.398 652.193 227.064 652.193 227.064C652.193 227.064 652.412 228.777 652.696 231.741Z" fill="black"/>
<path d="M207.738 289.725C207.791 287.525 207.738 285.24 207.573 283.139C207.573 282.737 207.507 282.348 207.467 281.966C208.712 282.902 209.453 283.613 209.453 283.613L208.361 226.419L202.336 196.458C202.336 175.211 190.836 169.225 190.836 169.225C190.836 169.225 184.812 166.498 183.17 162.691C181.528 158.884 166.976 150.836 166.969 150.836C166.854 149.45 166.81 148.058 166.837 146.667C166.837 146.305 166.837 145.929 166.87 145.554C170.518 143.148 173.164 139.506 174.318 135.305C175.471 131.104 175.052 126.63 173.14 122.713C173.947 122.713 174.603 122.377 174.907 121.185C175.874 117.411 174.94 111.728 172.742 108.711C172.272 108.08 171.743 107.496 171.16 106.966C170.478 106.285 169.76 105.641 169.008 105.036C167.128 103.482 165.036 101.848 162.706 101.98C161.384 102.152 160.113 102.601 158.978 103.297C153.157 106.344 147.351 109.418 141.56 112.518C139.421 113.67 137.217 114.882 135.721 116.95C134.224 119.018 133.622 121.666 133.205 124.268C132.854 126.03 132.771 127.835 132.96 129.622C133.135 131.248 133.883 132.76 135.072 133.89C135.311 134.178 135.585 134.437 135.886 134.661C137.065 135.517 138.581 135.727 139.812 136.419C140.743 139.108 142.302 141.539 144.36 143.512C144.36 143.848 144.314 144.171 144.287 144.54C144.215 145.482 144.102 146.516 143.956 147.563C143.956 147.563 139.911 147.457 133.887 155.624C127.862 163.791 114.72 164.884 114.72 164.884C114.72 164.884 109.795 162.704 104.319 187.218C98.8443 211.732 97.2024 228.052 99.9367 230.792C101.098 231.789 102.406 232.602 103.816 233.203C108.458 235.533 113.452 237.091 118.6 237.813C118.665 238.009 118.777 238.187 118.924 238.333L119.315 243.082C119.646 253.106 120.03 273.213 117.991 277.672C115.25 283.666 118.54 287.479 118.54 287.479L119.202 287.433C119.325 287.64 119.462 287.838 119.613 288.026L122.261 287.848C122.069 299.044 121.553 314.574 120.189 317.986C117.997 323.433 120.189 353.393 120.189 353.393L116.356 407.321C116.356 407.321 114.257 435.47 116.223 438.73C115.151 444.585 113.224 455.742 113.621 458.521C114.171 462.335 126.763 467.782 126.763 467.782C126.763 467.782 141.547 471.075 148.664 469.962C152.384 469.389 153.861 466.886 153.874 464.693C158.7 465.463 164.983 466.201 168.922 465.595C176.039 464.508 174.947 456.335 171.114 456.882C167.281 457.428 162.898 449.762 159.64 445.948C157.985 444.025 156.608 440.587 155.668 437.643C156.361 437.54 156.996 437.202 157.469 436.688C159.111 433.962 161.852 408.908 161.852 408.908L168.969 365.334C168.969 365.334 172.802 344.087 176.086 339.187C178.568 335.486 181.674 307.863 183.044 294.559H183.163H183.203L183.349 294.092L185.407 287.479C186.506 289.409 189.274 290.364 192.498 290.772C192.154 292.168 191.869 293.308 191.704 293.96C190.883 297.253 202.853 302.673 205.739 299.953C206.951 298.814 207.58 294.684 207.725 290.166H207.825L207.738 289.725ZM135.8 438.269C135.615 439.329 135.429 440.436 135.244 441.562C134.827 440.245 134.496 439.059 134.271 438.183C134.814 438.203 135.323 438.23 135.8 438.269Z" fill="url(#paint2_linear_80_513)"/>
<path d="M154.159 426.915C154.159 426.915 156.271 436.359 159.455 440.028C162.639 443.696 166.837 451.04 170.525 450.519C174.212 449.999 175.271 457.863 168.413 458.91C161.554 459.957 147.32 456.809 147.32 456.809C147.32 456.809 135.191 451.54 134.668 447.891C134.145 444.243 137.832 425.334 137.832 425.334L154.159 426.915Z" fill="#53526B"/>
<path opacity="0.05" d="M154.159 426.915C154.159 426.915 156.271 436.359 159.455 440.028C162.639 443.696 166.837 451.04 170.525 450.519C174.212 449.999 175.271 457.863 168.413 458.91C161.554 459.957 147.32 456.809 147.32 456.809C147.32 456.809 135.191 451.54 134.668 447.891C134.145 444.243 137.832 425.334 137.832 425.334L154.159 426.915Z" fill="black"/>
<path d="M134.648 431.11C134.648 431.11 136.76 440.555 139.944 444.223C143.129 447.891 147.326 455.235 151.014 454.715C154.701 454.194 155.761 462.058 148.902 463.106C142.043 464.153 127.809 461.011 127.809 461.011C127.809 461.011 115.68 455.742 115.157 452.093C114.634 448.445 118.322 429.536 118.322 429.536L134.648 431.11Z" fill="#53526B"/>
<path d="M182.633 287.387C182.633 287.387 178.416 332.495 175.252 337.218C172.087 341.94 168.399 362.397 168.399 362.397L161.547 404.357C161.547 404.357 158.899 428.489 157.33 431.11C155.761 433.731 136.191 432.605 136.191 432.605L148.333 293.683L182.633 287.387Z" fill="#5F5D7E"/>
<path opacity="0.05" d="M182.633 287.387C182.633 287.387 178.416 332.495 175.252 337.218C172.087 341.94 168.399 362.397 168.399 362.397L161.547 404.357C161.547 404.357 158.899 428.489 157.33 431.11C155.761 433.731 136.191 432.605 136.191 432.605L148.333 293.683L182.633 287.387Z" fill="black"/>
<path d="M191.068 265.883L189.691 270.237L182.243 293.756L182.097 294.204H182.057C181.058 294.427 159.952 299.255 155.397 300.737C155.151 300.813 154.91 300.903 154.675 301.007C152.563 302.054 149.928 339.819 149.928 339.819C149.928 339.819 148.346 375.49 147.28 378.111C146.214 380.732 141.983 434.752 139.368 433.185C136.753 431.617 117.752 433.185 117.752 433.185C115.64 431.084 117.752 402.763 117.752 402.763L121.44 350.831C121.44 350.831 119.328 321.984 121.44 316.735C123.552 311.486 123.552 276.348 123.552 276.348L166.738 269.696L170.909 269.038L191.068 265.883Z" fill="#5F5D7E"/>
<path opacity="0.02" d="M189.691 270.237L182.243 293.756L182.064 294.217C181.064 294.441 159.958 299.268 155.403 300.75H154.946L166.738 269.696L167.075 268.801L170.908 269.044L189.691 270.237Z" fill="black"/>
<path opacity="0.1" d="M140.448 160.979C140.448 160.979 159.958 181.962 172.087 164.647L183.686 172.518L181.574 184.584L188.426 275.854C188.426 275.854 170.498 275.328 157.846 279.523C154.323 280.766 150.515 280.983 146.872 280.146C143.229 279.309 139.902 277.455 137.283 274.801L139.395 194.548L134.648 169.896L140.448 160.979Z" fill="black"/>
<path d="M140.448 159.405C140.448 159.405 159.958 180.388 172.087 163.073L183.686 170.944L181.574 183.01L188.433 274.307C188.433 274.307 170.505 273.78 157.853 277.975C154.329 279.219 150.522 279.435 146.879 278.598C143.236 277.762 139.909 275.907 137.29 273.253L139.402 193.001L134.655 168.349L140.448 159.405Z" fill="#53526B"/>
<path d="M179.389 252.849V256.149H180.455V253.949H184.328V256.149H185.393V252.856L179.389 252.849Z" fill="#E82127"/>
<path d="M180.343 251.782H184.434C184.702 251.718 184.948 251.583 185.144 251.39C185.34 251.197 185.479 250.955 185.546 250.689H179.237C179.305 250.954 179.445 251.196 179.641 251.389C179.837 251.582 180.082 251.718 180.349 251.782" fill="#E82127"/>
<path d="M176.172 256.149C176.404 256.059 176.61 255.915 176.773 255.727C176.936 255.54 177.05 255.316 177.105 255.075H172.332V250.689H171.259V256.149H176.165" fill="#E82127"/>
<path d="M163.315 251.762H167.095C167.364 251.695 167.612 251.561 167.816 251.374C168.019 251.186 168.172 250.951 168.26 250.689H162.236V253.89H167.148V255.023H163.295C163.001 255.1 162.727 255.239 162.49 255.43C162.254 255.62 162.061 255.859 161.924 256.129H168.194V252.836H163.288V251.756" fill="#E82127"/>
<path d="M153.986 251.776H158.078C158.346 251.712 158.591 251.576 158.787 251.383C158.984 251.191 159.123 250.948 159.19 250.682H152.881C152.949 250.948 153.088 251.19 153.284 251.383C153.48 251.575 153.725 251.711 153.993 251.776" fill="#E82127"/>
<path d="M153.986 253.929H158.078C158.346 253.866 158.592 253.731 158.788 253.538C158.984 253.345 159.124 253.102 159.19 252.836H152.881C152.949 253.102 153.088 253.344 153.284 253.536C153.48 253.729 153.725 253.865 153.993 253.929" fill="#E82127"/>
<path d="M153.986 256.149H158.078C158.346 256.085 158.591 255.949 158.787 255.757C158.984 255.564 159.123 255.321 159.19 255.055H152.881C152.949 255.321 153.088 255.563 153.284 255.756C153.48 255.948 153.725 256.084 153.993 256.149" fill="#E82127"/>
<path d="M143.347 250.696C143.417 250.958 143.557 251.198 143.751 251.389C143.945 251.58 144.188 251.716 144.453 251.782H146.174L146.26 251.815V256.136H147.333V251.815L147.432 251.782H149.153C149.418 251.714 149.659 251.578 149.853 251.387C150.047 251.196 150.187 250.958 150.259 250.696H143.347Z" fill="#E82127"/>
<path d="M164.447 239.894L169.816 209.842C174.934 209.842 176.549 210.401 176.788 212.68C176.788 212.68 180.224 211.409 181.952 208.821C177.675 206.911 173.08 205.806 168.399 205.561L164.427 210.362L160.455 205.561C155.774 205.805 151.179 206.911 146.903 208.821C148.631 211.409 152.067 212.68 152.067 212.68C152.298 210.401 153.914 209.842 158.998 209.835L164.414 239.894" fill="#E82127"/>
<path d="M164.447 204.171C170.676 204.094 176.85 205.326 182.567 207.787C182.989 207.08 183.35 206.34 183.646 205.574C171.333 200.611 157.561 200.611 145.247 205.574C145.564 206.335 145.931 207.074 146.346 207.787C152.063 205.326 158.238 204.094 164.467 204.171" fill="#E82127"/>
<path d="M181.051 267.978C181.051 267.978 181.051 281.617 184.216 287.387C187.38 293.156 205.832 290.021 205.832 290.021L202.144 270.612L181.051 267.978Z" fill="#D39999"/>
<path d="M203.826 299.453C201.045 302.087 189.519 296.818 190.313 293.683C190.869 291.464 192.816 283.521 193.921 279.016L194.689 275.848C194.689 275.848 201.442 273.747 203.826 275.848C204.693 276.612 205.302 279.622 205.587 283.257C206.077 289.574 205.593 297.786 203.826 299.453Z" fill="#FDC2CC"/>
<path d="M178.41 168.843L159.958 183.003C159.958 183.003 132.543 181.429 139.395 168.316C142.379 162.549 144.179 156.248 144.691 149.782C144.914 147.397 144.914 144.996 144.691 142.61C144.691 142.61 170.002 119.559 166.837 145.758C166.588 147.769 166.442 149.792 166.4 151.817C166.049 171.484 178.41 168.843 178.41 168.843Z" fill="#FDC2CC"/>
<path opacity="0.1" d="M166.81 145.765C166.561 147.776 166.415 149.798 166.373 151.824C163.533 153.695 160.2 154.69 156.794 154.682C152.073 154.682 148.597 150.112 145.459 147.075C145.81 142.722 144.671 142.617 144.671 142.617C144.671 142.617 169.975 119.532 166.81 145.765Z" fill="black"/>
<path d="M156.794 153.629C166.403 153.629 174.192 145.879 174.192 136.32C174.192 126.761 166.403 119.012 156.794 119.012C147.185 119.012 139.395 126.761 139.395 136.32C139.395 145.879 147.185 153.629 156.794 153.629Z" fill="#FDC2CC"/>
<path opacity="0.1" d="M144.407 152.845C144.407 152.845 141.507 153.108 135.707 160.972C129.908 168.836 117.216 169.89 117.216 169.89C117.216 169.89 112.469 167.789 107.199 191.394C101.929 214.998 100.347 230.733 102.982 233.354C105.617 235.975 116.163 239.65 121.433 239.65C121.433 239.65 123.016 272.693 120.381 278.463C117.746 284.232 120.91 287.907 120.91 287.907L144.082 286.333C144.082 286.333 151.994 276.368 153.576 259.06C155.158 241.751 160.428 192.441 157.793 186.671C155.158 180.902 143.559 166.215 144.082 164.641C144.605 163.067 144.407 152.845 144.407 152.845Z" fill="black"/>
<path d="M144.36 152.687C144.36 152.687 140.461 152.581 134.661 160.452C128.862 168.322 116.21 169.37 116.21 169.37C116.21 169.37 111.463 167.269 106.193 190.873C100.923 214.478 99.3408 230.212 101.989 232.814C104.637 235.416 115.17 239.11 120.44 239.11C120.44 239.11 122.023 272.153 119.388 277.923C116.753 283.692 119.917 287.367 119.917 287.367L143.089 285.793C143.089 285.793 151.001 275.828 152.583 258.52C154.165 241.211 159.435 191.901 156.8 186.131C154.165 180.362 142.566 165.675 143.089 164.101C143.612 162.527 144.36 152.687 144.36 152.687Z" fill="#D39999"/>
<path d="M130.457 220.248C130.457 220.248 156.84 190.149 153.132 210.803C150.484 225.49 140.481 233.361 135.734 234.935C130.987 236.509 130.457 220.248 130.457 220.248Z" fill="#FDC2CC"/>
<path opacity="0.1" d="M205.587 283.257C203.064 281.341 198.304 278.357 193.921 279.016L194.689 275.848C194.689 275.848 201.442 273.747 203.826 275.848C204.7 276.612 205.302 279.622 205.587 283.257Z" fill="black"/>
<path opacity="0.1" d="M166.546 155.993C166.546 155.993 179.992 164.647 181.574 168.322C183.156 171.997 188.956 174.619 188.956 174.619C188.956 174.619 200.026 180.388 200.026 200.845L205.825 229.692L179.449 266.403C179.449 266.403 176.284 229.686 174.702 220.768C173.12 211.85 171.014 195.082 171.014 195.082C171.014 195.082 163.103 185.117 164.162 182.496C165.222 179.874 166.546 155.993 166.546 155.993Z" fill="black"/>
<path d="M166.499 155.835C166.499 155.835 180.521 163.6 182.097 167.269C183.673 170.937 189.486 173.539 189.486 173.539C189.486 173.539 200.555 179.308 200.555 199.765L206.355 228.612L207.407 283.685C207.407 283.685 197.914 274.768 191.061 278.963C184.209 283.159 179.992 265.323 179.992 265.323C179.992 265.323 176.827 228.605 175.245 219.688C173.663 210.77 171.557 194.002 171.557 194.002C171.557 194.002 163.646 184.076 164.705 181.442C165.764 178.807 166.499 155.835 166.499 155.835Z" fill="#D39999"/>
<path opacity="0.1" d="M172.067 115.271C171.174 114.141 170.142 113.128 168.995 112.254C167.181 110.753 165.175 109.185 162.924 109.317C161.651 109.486 160.428 109.921 159.336 110.595C153.731 113.532 148.141 116.5 142.566 119.499C140.507 120.606 138.382 121.778 136.945 123.767C135.509 125.756 134.926 128.311 134.522 130.814C134.184 132.509 134.104 134.246 134.284 135.965C134.448 137.65 135.271 139.204 136.575 140.292C138.077 141.378 140.136 141.385 141.394 142.808C142.123 143.631 142.44 144.783 142.957 145.784C143.473 146.786 144.367 147.76 145.386 147.583C146.406 147.405 147.022 146.331 147.167 145.244C147.232 144.143 147.168 143.038 146.975 141.951C146.777 139.976 147.028 137.881 148.18 136.412C148.975 135.411 150.114 134.805 150.881 133.778C152.722 131.302 151.881 127.192 153.9 124.867C154.487 124.259 155.225 123.817 156.039 123.586C156.853 123.354 157.714 123.342 158.535 123.55C160.17 123.892 161.666 124.775 163.169 125.525C165.199 126.544 167.326 127.361 169.518 127.962C171.359 128.463 173.491 129.662 174.119 127.225C175.079 123.648 174.153 118.175 172.067 115.271Z" fill="black"/>
<path d="M171.537 114.744C170.645 113.614 169.613 112.601 168.466 111.728C166.652 110.226 164.645 108.658 162.395 108.79C161.121 108.959 159.898 109.394 158.806 110.068C153.205 113.005 148.551 110.226 142.036 118.972C140.646 120.843 137.852 121.251 136.416 123.24C134.979 125.229 134.396 127.785 133.993 130.287C133.655 131.983 133.574 133.719 133.754 135.438C133.918 137.123 134.741 138.677 136.045 139.765C137.548 140.852 139.607 140.858 140.865 142.281C141.593 143.104 141.911 144.257 142.427 145.258C142.943 146.259 143.837 147.234 144.857 147.056C145.876 146.878 146.492 145.804 146.638 144.718C146.703 143.616 146.638 142.511 146.446 141.425C146.247 139.449 146.499 137.354 147.651 135.886C148.445 134.884 149.584 134.279 150.352 133.251C152.192 130.775 151.352 126.665 153.371 124.34C153.957 123.732 154.695 123.29 155.509 123.059C156.323 122.827 157.185 122.815 158.005 123.023C159.64 123.365 161.137 124.248 162.639 124.999C164.67 126.018 166.797 126.834 168.989 127.436C170.829 127.936 172.961 129.135 173.59 126.698C174.556 123.122 173.656 117.648 171.537 114.744Z" fill="#865A61"/>
<path d="M124.101 192.448C124.101 192.448 123.572 211.857 120.937 214.478C118.302 217.099 122.519 220.248 122.519 220.248L133.066 217.613C133.066 217.613 130.417 234.922 141.5 232.827C141.5 232.827 134.118 239.644 126.736 240.698C119.355 241.751 119.864 239.13 119.864 239.13L108.795 226.017L124.101 192.448Z" fill="#D39999"/>
<path opacity="0.1" d="M124.015 194.805C124.015 194.805 116.984 212.641 122.261 219.984L133.86 217.35C133.86 217.35 123.314 220.498 124.896 214.202C126.478 207.905 124.015 194.805 124.015 194.805Z" fill="black"/>
<path opacity="0.1" d="M120.149 238.867C120.149 238.867 135.442 239.914 139.66 236.766C134.11 240.995 127.551 243.718 120.626 244.669L120.149 238.867Z" fill="black"/>
<path opacity="0.1" d="M186.069 205.297C186.069 205.297 193.981 229.429 193.451 233.097C192.922 236.766 191.869 277.159 191.869 277.159L190.287 276.632L190.816 232.57L186.069 205.297Z" fill="black"/>
<path d="M519.161 273.536C519.161 273.536 530.747 296.16 521.306 308.535C511.865 320.91 522.166 354.638 522.166 354.638" stroke="#6C63FF" stroke-miterlimit="10"/>
<path d="M522.59 266.496C522.59 270.856 519.373 274.399 519.373 274.399C519.373 274.399 516.155 270.862 516.155 266.496C516.155 262.129 519.373 258.592 519.373 258.592C519.373 258.592 522.59 262.136 522.59 266.496Z" fill="#D7987D"/>
<path d="M525.165 273.536C525.165 273.536 513.58 296.16 523.02 308.535C532.461 320.91 522.16 354.638 522.16 354.638" stroke="#6C63FF" stroke-miterlimit="10"/>
<path d="M521.729 266.496C521.729 270.856 524.947 274.399 524.947 274.399C524.947 274.399 528.165 270.862 528.165 266.496C528.165 262.129 524.947 258.592 524.947 258.592C524.947 258.592 521.729 262.136 521.729 266.496Z" fill="#D7987D"/>
<path opacity="0.1" d="M521.729 266.496C521.729 270.856 524.947 274.399 524.947 274.399C524.947 274.399 528.165 270.862 528.165 266.496C528.165 262.129 524.947 258.592 524.947 258.592C524.947 258.592 521.729 262.136 521.729 266.496Z" fill="black"/>
<path d="M529.886 273.536C529.886 273.536 541.472 296.16 532.031 308.535C522.59 320.91 532.892 354.638 532.892 354.638" stroke="#6C63FF" stroke-miterlimit="10"/>
<path d="M533.315 266.496C533.315 270.856 530.098 274.399 530.098 274.399C530.098 274.399 526.88 270.862 526.88 266.496C526.88 262.129 530.098 258.592 530.098 258.592C530.098 258.592 533.315 262.136 533.315 266.496Z" fill="#D7987D"/>
<path d="M531.515 284.621C528.476 287.762 523.689 288.092 523.689 288.092C523.689 288.092 523.835 283.323 526.874 280.188C529.912 277.053 534.699 276.717 534.699 276.717C534.699 276.717 534.553 281.479 531.515 284.621Z" fill="#D7987D"/>
<path d="M531.812 300.23C528.774 303.372 523.987 303.701 523.987 303.701C523.987 303.701 524.133 298.932 527.171 295.797C530.21 292.662 534.97 292.32 534.97 292.32C534.97 292.32 534.851 297.082 531.812 300.23Z" fill="#D7987D"/>
<path d="M515.334 308.812C518.207 312.105 518.108 316.873 518.108 316.873C518.108 316.873 513.348 316.3 510.475 313.007C507.601 309.714 507.701 304.946 507.701 304.946C507.701 304.946 512.461 305.519 515.334 308.812Z" fill="#D7987D"/>
<path d="M518.002 275.532C521.657 277.942 522.842 282.566 522.842 282.566C522.842 282.566 518.095 283.277 514.447 280.893C510.799 278.509 509.607 273.859 509.607 273.859C509.607 273.859 514.348 273.121 518.002 275.532Z" fill="#D7987D"/>
<path opacity="0.1" d="M518.002 275.532C521.657 277.942 522.842 282.566 522.842 282.566C522.842 282.566 518.095 283.277 514.447 280.893C510.799 278.509 509.607 273.859 509.607 273.859C509.607 273.859 514.348 273.121 518.002 275.532Z" fill="black"/>
<path d="M535.891 273.536C535.891 273.536 524.305 296.16 533.746 308.535C543.187 320.91 532.885 354.638 532.885 354.638" stroke="#6C63FF" stroke-miterlimit="10"/>
<path d="M532.461 266.496C532.461 270.856 535.679 274.399 535.679 274.399C535.679 274.399 538.896 270.862 538.896 266.496C538.896 262.129 535.679 258.592 535.679 258.592C535.679 258.592 532.461 262.136 532.461 266.496Z" fill="#D7987D"/>
<path opacity="0.1" d="M532.461 266.496C532.461 270.856 535.679 274.399 535.679 274.399C535.679 274.399 538.896 270.862 538.896 266.496C538.896 262.129 535.679 258.592 535.679 258.592C535.679 258.592 532.461 262.136 532.461 266.496Z" fill="black"/>
<path d="M533.388 284.957C530.31 288.065 530.078 292.86 530.078 292.86C530.078 292.86 534.864 292.59 537.943 289.481C541.022 286.373 541.253 281.578 541.253 281.578C541.253 281.578 536.46 281.848 533.388 284.957Z" fill="#D7987D"/>
<path opacity="0.1" d="M533.388 284.957C530.31 288.065 530.078 292.86 530.078 292.86C530.078 292.86 534.864 292.59 537.943 289.481C541.022 286.373 541.253 281.578 541.253 281.578C541.253 281.578 536.46 281.848 533.388 284.957Z" fill="black"/>
<path d="M539.419 306.579C536.341 309.688 536.109 314.482 536.109 314.482C536.109 314.482 540.896 314.212 543.974 311.104C547.053 307.995 547.285 303.2 547.285 303.2C547.285 303.2 542.498 303.457 539.419 306.579Z" fill="#D7987D"/>
<path d="M530.541 301.817C530.541 301.817 537.513 290.884 547.305 290.621" stroke="#6C63FF" stroke-miterlimit="10"/>
<path d="M525.113 295.211C525.113 295.211 518.141 284.278 508.349 284.015" stroke="#6C63FF" stroke-miterlimit="10"/>
<path d="M524.206 310.82C524.206 310.82 531.177 299.887 540.969 299.624" stroke="#6C63FF" stroke-miterlimit="10"/>
<path d="M546.98 292.359C547.978 292.359 548.787 291.554 548.787 290.561C548.787 289.568 547.978 288.763 546.98 288.763C545.982 288.763 545.173 289.568 545.173 290.561C545.173 291.554 545.982 292.359 546.98 292.359Z" fill="#D7987D"/>
<path d="M508.515 285.905C509.513 285.905 510.322 285.1 510.322 284.107C510.322 283.114 509.513 282.309 508.515 282.309C507.517 282.309 506.707 283.114 506.707 284.107C506.707 285.1 507.517 285.905 508.515 285.905Z" fill="#D7987D"/>
<path d="M529.336 314.423C529.336 314.423 522.365 303.49 512.573 303.227" stroke="#6C63FF" stroke-miterlimit="10"/>
<path d="M512.739 305.117C513.737 305.117 514.546 304.312 514.546 303.319C514.546 302.326 513.737 301.521 512.739 301.521C511.741 301.521 510.931 302.326 510.931 303.319C510.931 304.312 511.741 305.117 512.739 305.117Z" fill="#D7987D"/>
<path d="M541.101 301.514C542.099 301.514 542.908 300.709 542.908 299.716C542.908 298.723 542.099 297.918 541.101 297.918C540.103 297.918 539.294 298.723 539.294 299.716C539.294 300.709 540.103 301.514 541.101 301.514Z" fill="#D7987D"/>
<path d="M567.881 341.486C567.881 341.486 551.078 338.14 546.596 333.681C542.114 329.222 521.948 321.444 519.71 326.996C517.472 332.548 489.461 351.536 508.488 354.875C527.516 358.214 553.303 359.334 558.904 357.101C564.505 354.869 567.881 341.486 567.881 341.486Z" fill="#A8A8A8"/>
<path opacity="0.2" d="M508.488 352.807C527.536 356.153 553.303 357.266 558.904 355.033C563.167 353.334 566.133 345.154 567.305 341.387L567.868 341.505C567.868 341.505 564.505 354.882 558.904 357.108C553.303 359.334 527.536 358.221 508.488 354.882C502.993 353.914 501.418 351.648 502.014 348.783C502.497 350.647 504.41 352.089 508.488 352.807Z" fill="black"/>
<path d="M75.0237 397.244C75.0237 397.244 80.5716 404.489 72.4615 415.356C64.3514 426.223 57.6647 435.45 60.3725 442.254C60.3725 442.254 72.6072 422.014 82.5644 421.731C92.5217 421.448 85.974 409.415 75.0237 397.244Z" fill="#D7987D"/>
<path opacity="0.1" d="M75.0236 397.244C75.5071 397.942 75.8883 398.705 76.1557 399.51C85.8747 410.864 91.0453 421.461 81.7104 421.731C73.011 421.982 62.5771 437.452 60.0745 441.365C60.1571 441.666 60.2566 441.963 60.3724 442.254C60.3724 442.254 72.6072 422.014 82.5644 421.731C92.5217 421.448 85.974 409.415 75.0236 397.244Z" fill="black"/>
<path d="M85.3384 406.438C85.3384 408.98 85.0537 411.048 84.6763 411.048C84.299 411.048 84.0143 408.987 84.0143 406.438C84.0143 403.889 84.3718 405.121 84.7227 405.121C85.0736 405.121 85.3384 403.903 85.3384 406.438Z" fill="#FFD037"/>
<path d="M88.8738 409.474C86.6294 410.693 84.6764 411.45 84.5109 411.114C84.3453 410.779 86.0203 409.567 88.2647 408.355C90.509 407.143 89.6219 408.026 89.794 408.355C89.9662 408.684 91.1181 408.256 88.8738 409.474Z" fill="#FFD037"/>
<path d="M45.7146 397.244C45.7146 397.244 40.1666 404.489 48.2768 415.356C56.3869 426.223 63.0736 435.45 60.3658 442.247C60.3658 442.247 48.1311 422.008 38.1739 421.725C28.2166 421.441 34.7643 409.415 45.7146 397.244Z" fill="#D7987D"/>
<path opacity="0.1" d="M45.7146 397.244C45.2312 397.942 44.85 398.705 44.5825 399.51C34.8636 410.864 29.693 421.461 39.0279 421.731C47.7273 421.982 58.1612 437.452 60.6637 441.365C60.5812 441.666 60.4817 441.963 60.3658 442.254C60.3658 442.254 48.1311 422.014 38.1739 421.731C28.2166 421.448 34.7643 409.415 45.7146 397.244Z" fill="black"/>
<path d="M35.3999 406.438C35.3999 408.98 35.6846 411.048 36.062 411.048C36.4393 411.048 36.724 408.987 36.724 406.438C36.724 403.889 36.3665 405.121 36.0156 405.121C35.6647 405.121 35.3999 403.903 35.3999 406.438Z" fill="#FFD037"/>
<path d="M31.8646 409.474C34.1089 410.693 36.062 411.45 36.2275 411.114C36.393 410.779 34.718 409.567 32.4736 408.355C30.2293 407.143 31.1164 408.026 30.9443 408.355C30.7722 408.684 29.6202 408.256 31.8646 409.474Z" fill="#FFD037"/>
<path d="M37.1675 441.299C37.1675 441.299 52.6794 440.825 57.3535 437.512C62.0276 434.199 81.1873 430.267 82.3724 435.536C83.5575 440.805 105.683 461.953 88.172 462.091C70.6607 462.23 47.4823 459.378 42.8148 456.552C38.1474 453.727 37.1675 441.299 37.1675 441.299Z" fill="#A8A8A8"/>
<path opacity="0.2" d="M88.4898 460.267C70.9785 460.405 47.8001 457.553 43.1327 454.728C39.5774 452.574 38.1606 444.849 37.6906 441.286H37.1742C37.1742 441.286 38.154 453.733 42.8215 456.559C47.489 459.384 70.6674 462.243 88.1786 462.098C93.2367 462.058 94.9779 460.267 94.8852 457.619C94.1768 459.239 92.2502 460.234 88.4898 460.267Z" fill="black"/>
</g>
<defs>
<linearGradient id="paint0_linear_80_513" x1="335.455" y1="393.161" x2="335.455" y2="159.629" gradientUnits="userSpaceOnUse">
<stop stop-color="#808080" stop-opacity="0.25"/>
<stop offset="0.54" stop-color="#808080" stop-opacity="0.12"/>
<stop offset="1" stop-color="#808080" stop-opacity="0.1"/>
</linearGradient>
<linearGradient id="paint1_linear_80_513" x1="385.975" y1="333.943" x2="430.871" y2="166.332" gradientUnits="userSpaceOnUse">
<stop stop-color="#808080" stop-opacity="0.25"/>
<stop offset="0.54" stop-color="#808080" stop-opacity="0.12"/>
<stop offset="1" stop-color="#808080" stop-opacity="0.1"/>
</linearGradient>
<linearGradient id="paint2_linear_80_513" x1="154.059" y1="470.139" x2="154.059" y2="101.967" gradientUnits="userSpaceOnUse">
<stop stop-color="#808080" stop-opacity="0.25"/>
<stop offset="0.54" stop-color="#808080" stop-opacity="0.12"/>
<stop offset="1" stop-color="#808080" stop-opacity="0.1"/>
</linearGradient>
<clipPath id="clip0_80_513">
<rect width="678" height="517" fill="white"/>
</clipPath>
</defs>
</svg>
